<svg width="89" height="89" viewBox="0 0 89 89" fill="none" xmlns="http://www.w3.org/2000/svg">
<path d="M56.0135 24.7649C54.1093 29.0045 47.2661 31.1821 40.6562 31.4698V40.9433C44.6501 42.9829 47.4813 46.7957 48.3157 51.2577C51.8573 52.33 54.8436 54.0989 56.0131 56.6968H56.0135C56.1884 57.1398 56.5561 57.4752 57.0084 57.6044C57.4611 57.7332 57.9468 57.641 58.3229 57.3549C58.6993 57.0692 58.9232 56.6216 58.9292 56.1438V25.3455C58.9315 24.8651 58.7126 24.4109 58.3373 24.1183C57.962 23.8256 57.4736 23.7285 57.0171 23.8553C56.561 23.9826 56.1895 24.3191 56.0134 24.7652L56.0135 24.7649Z" fill="black"/>
<path d="M22.6119 34.5757H20.9798C20.5772 34.5757 20.1913 34.7384 19.9063 35.0276C19.6217 35.3167 19.4619 35.7088 19.4619 36.1179V45.3486C19.4634 45.7558 19.6232 46.146 19.9063 46.4336C20.1897 46.7216 20.5737 46.8839 20.9741 46.8854H21.6761C21.955 46.3815 22.2619 45.8942 22.5955 45.4261C22.5792 42.2314 22.5845 34.9241 22.6118 34.5757L22.6119 34.5757Z" fill="black"/>
<path d="M69.6288 39.1909H66.5985C66.079 39.2225 65.6115 39.5225 65.3603 39.9859C65.1091 40.4494 65.1091 41.0112 65.3603 41.4746C65.6115 41.938 66.079 42.238 66.5985 42.2696H69.6288C70.1483 42.238 70.6158 41.938 70.867 41.4746C71.1186 41.0111 71.1186 40.4494 70.867 39.9859C70.6158 39.5225 70.1483 39.2225 69.6288 39.1909Z" fill="black"/>
<path d="M64.2265 32.8354L66.8486 31.2932C67.3168 31.0186 67.6056 30.5109 67.606 29.9619C67.606 29.4124 67.318 28.9046 66.8497 28.6298C66.3814 28.3549 65.8046 28.3545 65.336 28.629L62.7086 30.1712C62.2403 30.4454 61.9516 30.9531 61.9512 31.5025C61.9512 32.052 62.2392 32.5597 62.7074 32.8346C63.1757 33.1095 63.7525 33.1095 64.2211 32.8354H64.2265Z" fill="black"/>
<path d="M66.85 50.1688L64.2279 48.6324C63.7596 48.3568 63.182 48.3564 62.713 48.6305C62.244 48.905 61.9549 49.4128 61.9541 49.9626C61.9533 50.5128 62.2417 51.021 62.71 51.2967L65.3321 52.8331C65.8004 53.1076 66.3776 53.1072 66.8458 52.8323C67.3137 52.5574 67.6021 52.0496 67.6017 51.5002C67.6017 50.9508 67.3129 50.4434 66.8446 50.1689L66.85 50.1688Z" fill="black"/>
<path d="M37.6308 39.8106V31.5195H29.1497C28.2139 31.5207 27.3169 31.8993 26.6551 32.5717C25.9932 33.2441 25.6207 34.1556 25.6191 35.1068V42.2925V42.2921C29.0548 39.6776 33.4623 38.765 37.6309 39.8049L37.6308 39.8106Z" fill="black"/>
<path d="M37.5604 42.3917C34.5383 41.491 31.2878 41.8469 28.5241 43.381C25.7601 44.9151 23.7096 47.5018 22.8223 50.572C21.9355 53.6425 22.2854 56.9452 23.7949 59.7536C25.3045 62.562 27.8499 64.6459 30.872 65.5473C33.8936 66.4488 37.1441 66.0941 39.9082 64.5607C42.6726 63.0274 44.7239 60.441 45.6115 57.3708C46.501 54.2995 46.1523 50.9952 44.642 48.1853C43.1317 45.3757 40.5841 43.2914 37.5605 42.3916L37.5604 42.3917ZM26.6201 51.7056C27.2956 49.3397 29.0035 47.4205 31.2523 46.5002C33.5013 45.5798 36.0415 45.7607 38.1422 46.9906L27.3487 57.9624C26.2748 56.0654 26.0114 53.8046 26.6198 51.7055L26.6201 51.7056ZM41.8142 56.2382L41.8146 56.2378C41.1376 58.6028 39.4293 60.5206 37.1806 61.4397C34.932 62.3585 32.3925 62.1773 30.2926 60.947L41.0861 49.9811C42.1607 51.8777 42.4241 54.139 41.8151 56.238L41.8142 56.2382Z" fill="black"/>
<path d="M54.4207 23.4016C52.5165 27.6412 45.6733 29.8189 39.0635 30.1065V39.58C43.0573 41.6196 45.8885 45.4324 46.723 49.8945C50.2645 50.9667 53.2508 52.7356 54.4203 55.3335H54.4207C54.5957 55.7765 54.9634 56.1119 55.4157 56.2411C55.8684 56.3699 56.3541 56.2777 56.7301 55.9916C57.1065 55.7059 57.3304 55.2583 57.3365 54.7806V23.9823C57.3388 23.5019 57.1198 23.0477 56.7445 22.755C56.3692 22.4624 55.8809 22.3652 55.4243 22.492C54.9682 22.6193 54.5967 22.9559 54.4207 23.402L54.4207 23.4016Z" fill="#474747"/>
<path d="M21.0191 33.2124H19.387C18.9844 33.2124 18.5985 33.3751 18.3135 33.6643C18.0289 33.9534 17.8691 34.3456 17.8691 34.7546V43.9854C17.8707 44.3925 18.0304 44.7827 18.3135 45.0703C18.597 45.3583 18.981 45.5206 19.3813 45.5222H20.0833C20.3622 45.0182 20.6692 44.5309 21.0027 44.0628C20.9864 40.8681 20.9917 33.5608 21.019 33.2124L21.0191 33.2124Z" fill="#474747"/>
<path d="M68.0361 37.8276H65.0057C64.4862 37.8593 64.0187 38.1592 63.7675 38.6227C63.5163 39.0861 63.5163 39.6479 63.7675 40.1113C64.0187 40.5747 64.4862 40.8747 65.0057 40.9063H68.0361C68.5555 40.8747 69.023 40.5747 69.2742 40.1113C69.5258 39.6479 69.5258 39.0861 69.2742 38.6227C69.023 38.1592 68.5555 37.8593 68.0361 37.8276Z" fill="#474747"/>
<path d="M62.6337 31.4721L65.2558 29.9299C65.724 29.6554 66.0128 29.1476 66.0132 28.5986C66.0132 28.0492 65.7252 27.5414 65.2569 27.2665C64.7887 26.9916 64.2119 26.9912 63.7432 27.2657L61.1158 28.8079C60.6476 29.0821 60.3588 29.5899 60.3584 30.1392C60.3584 30.6887 60.6464 31.1965 61.1147 31.4713C61.5829 31.7462 62.1597 31.7463 62.6284 31.4721H62.6337Z" fill="#474747"/>
<path d="M65.2572 48.8056L62.6351 47.2692C62.1669 46.9935 61.5893 46.9931 61.1203 47.2672C60.6512 47.5417 60.3621 48.0495 60.3613 48.5993C60.3606 49.1495 60.649 49.6577 61.1172 49.9334L63.7393 51.4698C64.2076 51.7443 64.7848 51.7439 65.253 51.469C65.7209 51.1941 66.0093 50.6863 66.0089 50.1369C66.0089 49.5875 65.7201 49.0801 65.2519 48.8056L65.2572 48.8056Z" fill="#474747"/>
<path d="M36.038 38.4473V30.1562H27.5569C26.6212 30.1574 25.7241 30.536 25.0623 31.2084C24.4005 31.8808 24.0279 32.7923 24.0264 33.7435V40.9292V40.9288C27.462 38.3144 31.8695 37.4017 36.0381 38.4416L36.038 38.4473Z" fill="#474747"/>
<path d="M35.9676 41.0284C32.9456 40.1277 29.6951 40.4836 26.9314 42.0177C24.1674 43.5518 22.1168 46.1385 21.2296 49.2087C20.3428 52.2792 20.6926 55.5819 22.2022 58.3903C23.7117 61.1987 26.2571 63.2826 29.2792 64.1841C32.3008 65.0855 35.5513 64.7308 38.3154 63.1974C41.0798 61.6641 43.1312 59.0778 44.0188 56.0075C44.9082 52.9362 44.5595 49.6319 43.0492 46.822C41.539 44.0125 38.9913 41.9281 35.9677 41.0283L35.9676 41.0284ZM25.0274 50.3423C25.7028 47.9765 27.4108 46.0572 29.6595 45.1369C31.9086 44.2166 34.4488 44.3974 36.5495 45.6273L25.7559 56.5991C24.682 54.7022 24.4187 52.4413 25.027 50.3423L25.0274 50.3423ZM40.2215 54.8749L40.2218 54.8745C39.5449 57.2395 37.8365 59.1573 35.5878 60.0765C33.3392 60.9952 30.7998 60.814 28.6998 59.5837L39.4934 48.6178C40.568 50.5144 40.8313 52.7757 40.2223 54.8747L40.2215 54.8749Z" fill="#474747"/>
<rect x="2.03809" y="2.5" width="84" height="84" rx="42" stroke="black" stroke-width="4"/>
</svg>
