<svg width="89" height="88" viewBox="0 0 89 88" fill="none" xmlns="http://www.w3.org/2000/svg">
<g clip-path="url(#clip0_782_2715)">
<path d="M61.4083 69.375H30.6404C27.1931 69.375 24.3633 66.5451 24.3633 63.0979V26.7732C24.3633 23.3259 27.1932 20.4961 30.6404 20.4961H61.3569C64.8041 20.4961 67.634 23.326 67.634 26.7732V63.0979C67.6856 66.5451 64.8556 69.375 61.4083 69.375Z" fill="black"/>
<path d="M60.9454 33.9763H38.8727C38.4097 33.9763 37.998 33.616 37.998 33.1017C37.998 32.6387 38.3584 32.2271 38.8727 32.2271H60.9454C61.4083 32.2271 61.82 32.5874 61.82 33.1017C61.7687 33.6163 61.4087 33.9763 60.9454 33.9763Z" fill="white"/>
<path d="M60.9454 45.8108H38.8727C38.4097 45.8108 37.998 45.4504 37.998 44.9362C37.998 44.4215 38.3584 44.0615 38.8727 44.0615H60.9454C61.4083 44.0615 61.82 44.4219 61.82 44.9362C61.8203 45.4508 61.4087 45.8108 60.9454 45.8108Z" fill="white"/>
<path d="M60.9454 57.5919H38.8727C38.4097 57.5919 37.998 57.2316 37.998 56.7173C37.998 56.2543 38.3584 55.8426 38.8727 55.8426L60.9454 55.8423C61.4083 55.8423 61.82 56.2026 61.82 56.7169C61.7687 57.1803 61.4087 57.5919 60.9454 57.5919Z" fill="white"/>
<path d="M33.3159 36.4955H33.1615C31.3093 36.4955 29.8174 35.0035 29.8174 33.1513C29.8174 31.299 31.3093 29.8071 33.1615 29.8071H33.3159C35.1681 29.8071 36.66 31.299 36.66 33.1513C36.66 35.0035 35.1168 36.4955 33.3159 36.4955ZM33.1615 31.196C32.0809 31.196 31.2063 32.0706 31.2063 33.1512C31.2063 34.2318 32.0809 35.1064 33.1615 35.1064H33.3159C34.3965 35.1064 35.2711 34.2318 35.2711 33.1512C35.2711 32.0706 34.3965 31.196 33.3159 31.196H33.1615Z" fill="white"/>
<path d="M33.3159 48.2801H33.1615C31.3093 48.2801 29.8174 46.7882 29.8174 44.936C29.8174 43.0837 31.3093 41.5918 33.1615 41.5918H33.3159C35.1681 41.5918 36.66 43.0837 36.66 44.936C36.66 46.7882 35.1168 48.2801 33.3159 48.2801ZM33.1615 42.9806C32.0809 42.9806 31.2063 43.8552 31.2063 44.9359C31.2063 46.0165 32.0809 46.8911 33.1615 46.8911H33.3159C34.3965 46.8911 35.2711 46.0165 35.2711 44.9359C35.2711 43.8552 34.3965 42.9806 33.3159 42.9806H33.1615Z" fill="white"/>
<path d="M33.3159 60.0614H33.1615C31.3093 60.0614 29.8174 58.5695 29.8174 56.7172C29.8174 54.865 31.3093 53.373 33.1615 53.373H33.3159C35.1681 53.373 36.66 54.865 36.66 56.7172C36.66 58.5691 35.1168 60.0614 33.3159 60.0614ZM33.1615 54.8132C32.0809 54.8132 31.2063 55.6879 31.2063 56.7685C31.2063 57.8491 32.0809 58.7237 33.1615 58.7237H33.3159C34.3965 58.7237 35.2711 57.8491 35.2711 56.7685C35.2711 55.6879 34.3965 54.8132 33.3159 54.8132H33.1615Z" fill="white"/>
<path d="M59.3361 67.5039H28.5681C25.1208 67.5039 22.291 64.674 22.291 61.2268V24.9021C22.291 21.4548 25.1209 18.625 28.5681 18.625H59.2846C62.7319 18.625 65.5617 21.4549 65.5617 24.9021V61.2268C65.6134 64.6741 62.7833 67.5039 59.3361 67.5039Z" fill="#474747"/>
<path d="M58.8731 32.1052H36.8004C36.3374 32.1052 35.9258 31.7449 35.9258 31.2306C35.9258 30.7676 36.2861 30.356 36.8004 30.356H58.8731C59.3361 30.356 59.7477 30.7163 59.7477 31.2306C59.6964 31.7452 59.3364 32.1052 58.8731 32.1052Z" fill="white"/>
<path d="M58.8731 43.9397H36.8004C36.3374 43.9397 35.9258 43.5794 35.9258 43.0651C35.9258 42.5504 36.2861 42.1904 36.8004 42.1904H58.8731C59.3361 42.1904 59.7477 42.5508 59.7477 43.0651C59.7481 43.5797 59.3364 43.9397 58.8731 43.9397Z" fill="white"/>
<path d="M58.8731 55.7208H36.8004C36.3374 55.7208 35.9258 55.3605 35.9258 54.8462C35.9258 54.3832 36.2861 53.9716 36.8004 53.9716L58.8731 53.9712C59.3361 53.9712 59.7477 54.3315 59.7477 54.8458C59.6964 55.3092 59.3364 55.7208 58.8731 55.7208Z" fill="white"/>
<path d="M31.2436 34.6244H31.0893C29.237 34.6244 27.7451 33.1324 27.7451 31.2802C27.7451 29.4279 29.237 27.936 31.0893 27.936H31.2436C33.0959 27.936 34.5878 29.4279 34.5878 31.2802C34.5878 33.1324 33.0445 34.6244 31.2436 34.6244ZM31.0893 29.3249C30.0086 29.3249 29.134 30.1995 29.134 31.2801C29.134 32.3607 30.0087 33.2354 31.0893 33.2354H31.2436C32.3243 33.2354 33.1989 32.3607 33.1989 31.2801C33.1989 30.1995 32.3242 29.3249 31.2436 29.3249H31.0893Z" fill="white"/>
<path d="M31.2436 46.409H31.0893C29.237 46.409 27.7451 44.9171 27.7451 43.0649C27.7451 41.2126 29.237 39.7207 31.0893 39.7207H31.2436C33.0959 39.7207 34.5878 41.2126 34.5878 43.0649C34.5878 44.9171 33.0445 46.409 31.2436 46.409ZM31.0893 41.1095C30.0086 41.1095 29.134 41.9842 29.134 43.0648C29.134 44.1454 30.0087 45.02 31.0893 45.02H31.2436C32.3243 45.02 33.1989 44.1454 33.1989 43.0648C33.1989 41.9842 32.3242 41.1095 31.2436 41.1095H31.0893Z" fill="white"/>
<path d="M31.2436 58.1903H31.0893C29.237 58.1903 27.7451 56.6984 27.7451 54.8461C27.7451 52.9939 29.237 51.502 31.0893 51.502H31.2436C33.0959 51.502 34.5878 52.9939 34.5878 54.8461C34.5878 56.698 33.0445 58.1903 31.2436 58.1903ZM31.0893 52.9421C30.0086 52.9421 29.134 53.8168 29.134 54.8974C29.134 55.978 30.0087 56.8526 31.0893 56.8526H31.2436C32.3243 56.8526 33.1989 55.978 33.1989 54.8974C33.1989 53.8168 32.3242 52.9421 31.2436 52.9421H31.0893Z" fill="white"/>
<rect x="5.46289" y="4.5" width="79" height="79" rx="39.5" stroke="black"/>
</g>
<rect x="2.96289" y="2" width="84" height="84" rx="42" stroke="black" stroke-width="4"/>
<defs>
<clipPath id="clip0_782_2715">
<rect x="4.96289" y="4" width="80" height="80" rx="40" fill="white"/>
</clipPath>
</defs>
</svg>
