<svg width="89" height="89" viewBox="0 0 89 89" fill="none" xmlns="http://www.w3.org/2000/svg">
<path d="M36.1152 64.8726V65.5368H55.9625V64.8726H36.1152Z" fill="black"/>
<path d="M38.5615 58.5635H53.5167V64.0083H38.5615V58.5635Z" fill="black"/>
<path d="M27.085 40.5928H51.0705V53.2071H27.085V40.5928Z" fill="black"/>
<path d="M65.0222 24.918H27.0559C24.4782 24.918 22.3809 27.049 22.3809 29.668V52.9501C22.3809 55.5692 24.4782 57.7002 27.0559 57.7002H65.0232C67.6009 57.7002 69.6982 55.5692 69.6982 52.9501L69.6978 29.668C69.6971 27.049 67.6001 24.918 65.022 24.918H65.0222ZM26.6605 30.1712H51.496V31.0349H26.6605V30.1712ZM26.6605 33.4203H51.496V34.284H26.6605V33.4203ZM26.6605 36.6717H51.496V37.5354H26.6605V36.6717ZM51.9206 54.0701H26.235V39.7285H51.9206V54.0701ZM65.8431 54.0701H54.6454V28.5455H65.844V54.0701H65.8431Z" fill="black"/>
<path d="M55.4941 29.4097H64.9925V53.207H55.4941V29.4097Z" fill="black"/>
<path d="M34.7422 63.3179V63.9821H54.5894V63.3179H34.7422Z" fill="#474747"/>
<path d="M37.1885 57.0088H52.1436V62.4536H37.1885V57.0088Z" fill="#474747"/>
<path d="M25.7119 39.0381H49.6975V51.6524H25.7119V39.0381Z" fill="#474747"/>
<path d="M63.6492 23.3633H25.6828C23.1051 23.3633 21.0078 25.4943 21.0078 28.1134V51.3954C21.0078 54.0145 23.1051 56.1455 25.6828 56.1455H63.6501C66.2278 56.1455 68.3251 54.0145 68.3251 51.3954L68.3248 28.1134C68.324 25.4943 66.2271 23.3633 63.649 23.3633H63.6492ZM25.2874 28.6165H50.123V29.4802H25.2874V28.6165ZM25.2874 31.8657H50.123V32.7293H25.2874V31.8657ZM25.2874 35.117H50.123V35.9807H25.2874V35.117ZM50.5475 52.5154H24.862V38.1739H50.5475V52.5154ZM64.47 52.5154H53.2724V26.9908H64.471V52.5154H64.47Z" fill="#474747"/>
<path d="M54.1211 27.855H63.6195V51.6523H54.1211V27.855Z" fill="#474747"/>
<rect x="2.96289" y="2.5" width="84" height="84" rx="42" stroke="black" stroke-width="4"/>
</svg>
