<svg width="24" height="24" viewBox="0 0 24 24" fill="none" xmlns="http://www.w3.org/2000/svg">
<path fill-rule="evenodd" clip-rule="evenodd" d="M22 12C22 11.7937 21.921 11.5959 21.7803 11.4501C21.6397 11.3043 21.4489 11.2223 21.25 11.2223H3.56168L8.28188 6.32924C8.3516 6.25694 8.40691 6.1711 8.44465 6.07663C8.48239 5.98216 8.50181 5.8809 8.50181 5.77865C8.50181 5.6764 8.48239 5.57514 8.44465 5.48067C8.40691 5.3862 8.3516 5.30037 8.28188 5.22806C8.21215 5.15576 8.12937 5.0984 8.03827 5.05927C7.94716 5.02014 7.84952 5 7.75091 5C7.6523 5 7.55466 5.02014 7.46355 5.05927C7.37245 5.0984 7.28967 5.15576 7.21994 5.22806L1.22033 11.4494C1.15049 11.5216 1.09508 11.6075 1.05727 11.7019C1.01946 11.7964 1 11.8977 1 12C1 12.1023 1.01946 12.2036 1.05727 12.2981C1.09508 12.3925 1.15049 12.4784 1.22033 12.5506L7.21994 18.7719C7.28967 18.8442 7.37245 18.9016 7.46355 18.9407C7.55466 18.9799 7.6523 19 7.75091 19C7.84952 19 7.94716 18.9799 8.03827 18.9407C8.12937 18.9016 8.21215 18.8442 8.28188 18.7719C8.3516 18.6996 8.40691 18.6138 8.44465 18.5193C8.48239 18.4249 8.50181 18.3236 8.50181 18.2213C8.50181 18.1191 8.48239 18.0178 8.44465 17.9234C8.40691 17.8289 8.3516 17.7431 8.28188 17.6708L3.56168 12.7777H21.25C21.4489 12.7777 21.6397 12.6957 21.7803 12.5499C21.921 12.4041 22 12.2063 22 12Z" fill="black"/>
</svg>
