<svg width="24" height="24" viewBox="0 0 24 24" fill="none" xmlns="http://www.w3.org/2000/svg">
<path fill-rule="evenodd" clip-rule="evenodd" d="M2 12C2 11.7937 2.07901 11.5959 2.21966 11.4501C2.3603 11.3043 2.55105 11.2223 2.74995 11.2223H20.4383L15.7181 6.32924C15.6484 6.25694 15.5931 6.1711 15.5553 6.07663C15.5176 5.98216 15.4982 5.8809 15.4982 5.77865C15.4982 5.6764 15.5176 5.57514 15.5553 5.48067C15.5931 5.3862 15.6484 5.30037 15.7181 5.22806C15.7879 5.15576 15.8706 5.0984 15.9617 5.05927C16.0528 5.02014 16.1505 5 16.2491 5C16.3477 5 16.4453 5.02014 16.5364 5.05927C16.6276 5.0984 16.7103 5.15576 16.7801 5.22806L22.7797 11.4494C22.8495 11.5216 22.9049 11.6075 22.9427 11.7019C22.9805 11.7964 23 11.8977 23 12C23 12.1023 22.9805 12.2036 22.9427 12.2981C22.9049 12.3925 22.8495 12.4784 22.7797 12.5506L16.7801 18.7719C16.7103 18.8442 16.6276 18.9016 16.5364 18.9407C16.4453 18.9799 16.3477 19 16.2491 19C16.1505 19 16.0528 18.9799 15.9617 18.9407C15.8706 18.9016 15.7879 18.8442 15.7181 18.7719C15.6484 18.6996 15.5931 18.6138 15.5553 18.5193C15.5176 18.4249 15.4982 18.3236 15.4982 18.2213C15.4982 18.1191 15.5176 18.0178 15.5553 17.9234C15.5931 17.8289 15.6484 17.7431 15.7181 17.6708L20.4383 12.7777H2.74995C2.55105 12.7777 2.3603 12.6957 2.21966 12.5499C2.07901 12.4041 2 12.2063 2 12Z" fill="black"/>
</svg>
