<svg width="24" height="24" viewBox="0 0 24 24" fill="none" xmlns="http://www.w3.org/2000/svg">
<g clip-path="url(#clip0_1458_1179)">
<path d="M20.9992 11.9439C21.0079 13.1364 20.7786 14.3186 20.3246 15.4213C19.8706 16.524 19.2012 17.5251 18.3554 18.3658C14.8961 21.8251 9.23357 21.8626 5.72732 18.4501C4.44096 17.1984 3.55826 15.5906 3.19263 13.8334C2.82699 12.0761 2.99513 10.2497 3.67544 8.58876C4.35574 6.92781 5.51714 5.50821 7.01041 4.51235C8.50367 3.51649 10.2606 2.98987 12.0554 3.00015C12.1677 3.0018 12.2783 3.02835 12.3791 3.07787C12.4799 3.1274 12.5685 3.19867 12.6384 3.28654C12.7083 3.37442 12.7579 3.47672 12.7836 3.58607C12.8092 3.69541 12.8103 3.80909 12.7867 3.9189C12.689 4.35446 12.6898 4.80633 12.7889 5.24156C12.888 5.6768 13.083 6.08443 13.3596 6.43474C13.6363 6.78504 13.9876 7.0692 14.388 7.26649C14.7885 7.46378 15.2279 7.56923 15.6742 7.57515C15.8731 7.57515 16.0639 7.65417 16.2045 7.79482C16.3452 7.93547 16.4242 8.12624 16.4242 8.32515C16.4301 8.77149 16.5356 9.21088 16.7329 9.61129C16.9301 10.0117 17.2143 10.363 17.5646 10.6397C17.9149 10.9164 18.3225 11.1114 18.7578 11.2105C19.193 11.3096 19.6449 11.3103 20.0804 11.2126C20.1903 11.1891 20.3039 11.1901 20.4133 11.2158C20.5226 11.2414 20.6249 11.291 20.7128 11.3609C20.8007 11.4309 20.8719 11.5194 20.9215 11.6203C20.971 11.7211 20.9975 11.8316 20.9992 11.9439Z" stroke="white" stroke-linecap="round" stroke-linejoin="round"/>
<path d="M14.625 17.0625C15.1428 17.0625 15.5625 16.6428 15.5625 16.125C15.5625 15.6072 15.1428 15.1875 14.625 15.1875C14.1072 15.1875 13.6875 15.6072 13.6875 16.125C13.6875 16.6428 14.1072 17.0625 14.625 17.0625Z" fill="white"/>
<path d="M8.625 16.3125C9.14277 16.3125 9.5625 15.8928 9.5625 15.375C9.5625 14.8572 9.14277 14.4375 8.625 14.4375C8.10723 14.4375 7.6875 14.8572 7.6875 15.375C7.6875 15.8928 8.10723 16.3125 8.625 16.3125Z" fill="white"/>
<path d="M7.875 11.0625C8.39277 11.0625 8.8125 10.6428 8.8125 10.125C8.8125 9.60723 8.39277 9.1875 7.875 9.1875C7.35723 9.1875 6.9375 9.60723 6.9375 10.125C6.9375 10.6428 7.35723 11.0625 7.875 11.0625Z" fill="white"/>
<path d="M12.75 12.5625C13.2678 12.5625 13.6875 12.1428 13.6875 11.625C13.6875 11.1072 13.2678 10.6875 12.75 10.6875C12.2322 10.6875 11.8125 11.1072 11.8125 11.625C11.8125 12.1428 12.2322 12.5625 12.75 12.5625Z" fill="white"/>
</g>
<defs>
<clipPath id="clip0_1458_1179">
<rect width="24" height="24" fill="white"/>
</clipPath>
</defs>
</svg>
