<svg width="89" height="88" viewBox="0 0 89 88" fill="none" xmlns="http://www.w3.org/2000/svg">
<path d="M63.3045 38.4088H60.358C59.9801 38.4088 59.6025 38.1023 59.6025 37.6421V30.5889C59.6025 22.4621 53.407 15.5616 45.3983 15.2561C37.0114 14.9492 30.0604 21.7725 30.0604 30.2823V37.719C30.0604 38.1025 29.7583 38.4856 29.3049 38.4856H26.3584C25.2249 38.4856 24.3184 39.4055 24.3184 40.5556V67.6953C24.3184 68.8455 25.2249 69.7653 26.3584 69.7653H63.2289C64.3624 69.7653 65.2689 68.8455 65.2689 67.6953V40.4788C65.3444 39.3286 64.4379 38.4088 63.3044 38.4088H63.3045ZM34.6688 30.282C34.6688 24.3785 39.5043 19.6255 45.3982 19.932C50.9137 20.2385 55.1445 24.9919 55.1445 30.5886V37.7185C55.1445 38.102 54.8425 38.4851 54.389 38.4851L35.349 38.4855C34.9711 38.4855 34.5935 38.179 34.5935 37.7188V30.2821L34.6688 30.282Z" fill="black"/>
<path d="M61.7899 37.397H58.8433C58.4654 37.397 58.0878 37.0905 58.0878 36.6304V29.5771C58.0878 21.4504 51.8924 14.5499 43.8836 14.2443C35.4967 13.9375 28.5458 20.7608 28.5458 29.2706V36.7073C28.5458 37.0908 28.2437 37.4739 27.7902 37.4739H24.8437C23.7102 37.4739 22.8037 38.3938 22.8037 39.5439V66.6836C22.8037 67.8337 23.7102 68.7536 24.8437 68.7536H61.7142C62.8477 68.7536 63.7542 67.8337 63.7542 66.6836V39.467C63.8298 38.3169 62.9232 37.397 61.7897 37.397H61.7899ZM33.1541 29.2703C33.1541 23.3668 37.9896 18.6137 43.8836 18.9203C49.399 19.2268 53.6299 23.9802 53.6299 29.5769V36.7067C53.6299 37.0902 53.3278 37.4734 52.8744 37.4734L33.8344 37.4737C33.4565 37.4737 33.0789 37.1672 33.0789 36.7071V29.2704L33.1541 29.2703Z" fill="#474747"/>
<rect x="2.03809" y="2" width="84" height="84" rx="42" stroke="black" stroke-width="4"/>
</svg>
