<svg width="48" height="55" viewBox="0 0 48 55" fill="none" xmlns="http://www.w3.org/2000/svg">
<g filter="url(#filter0_i_447_185)">
<path d="M3.83376 35.5567C-0.131164 27.7049 0.000510789 14 0.000510789 14C0.000510789 14 5.24549 18.0155 11.2442 18.0155C18.6551 18.0155 23 14 23 14V55C23 55 8.39863 44.5966 3.83376 35.5567Z" fill="url(#paint0_linear_447_185)"/>
</g>
<g filter="url(#filter1_i_447_185)">
<path d="M44.1662 35.5567C48.1312 27.7049 47.9995 14 47.9995 14C47.9995 14 42.7545 18.0155 36.7558 18.0155C29.3449 18.0155 25 14 25 14V55C25 55 39.6014 44.5966 44.1662 35.5567Z" fill="url(#paint1_linear_447_185)"/>
</g>
<path d="M10.336 32.032C10.272 32.032 10.22 32.0173 10.18 31.988C10.1427 31.9587 10.12 31.92 10.112 31.872C10.104 31.8213 10.1133 31.7653 10.14 31.704L11.196 29.364C11.2307 29.2867 11.272 29.232 11.32 29.2C11.3707 29.1653 11.428 29.148 11.492 29.148C11.5533 29.148 11.608 29.1653 11.656 29.2C11.7067 29.232 11.7493 29.2867 11.784 29.364L12.844 31.704C12.8733 31.7653 12.884 31.8213 12.876 31.872C12.868 31.9227 12.8453 31.9627 12.808 31.992C12.7707 32.0187 12.7213 32.032 12.66 32.032C12.5853 32.032 12.5267 32.0147 12.484 31.98C12.444 31.9427 12.408 31.8867 12.376 31.812L12.116 31.208L12.332 31.348H10.644L10.86 31.208L10.604 31.812C10.5693 31.8893 10.5333 31.9453 10.496 31.98C10.4587 32.0147 10.4053 32.032 10.336 32.032ZM11.484 29.736L10.924 31.068L10.82 30.94H12.156L12.056 31.068L11.492 29.736H11.484ZM13.5566 32C13.4686 32 13.4006 31.9773 13.3526 31.932C13.3072 31.884 13.2846 31.816 13.2846 31.728V29.452C13.2846 29.364 13.3072 29.2973 13.3526 29.252C13.4006 29.204 13.4686 29.18 13.5566 29.18H14.3326C14.8046 29.18 15.1686 29.3013 15.4246 29.544C15.6832 29.7867 15.8126 30.1347 15.8126 30.588C15.8126 30.8147 15.7792 31.016 15.7126 31.192C15.6486 31.3653 15.5526 31.512 15.4246 31.632C15.2992 31.752 15.1446 31.844 14.9606 31.908C14.7792 31.9693 14.5699 32 14.3326 32H13.5566ZM13.7966 31.576H14.3006C14.4659 31.576 14.6086 31.556 14.7286 31.516C14.8512 31.4733 14.9526 31.412 15.0326 31.332C15.1152 31.2493 15.1766 31.1467 15.2166 31.024C15.2566 30.8987 15.2766 30.7533 15.2766 30.588C15.2766 30.2573 15.1952 30.0107 15.0326 29.848C14.8699 29.6853 14.6259 29.604 14.3006 29.604H13.7966V31.576Z" fill="#8BD8BD"/>
<path d="M29.58 32C29.492 32 29.424 31.9773 29.376 31.932C29.3307 31.884 29.308 31.816 29.308 31.728V29.452C29.308 29.364 29.3307 29.2973 29.376 29.252C29.424 29.204 29.492 29.18 29.58 29.18H30.54C30.7373 29.18 30.9053 29.2093 31.044 29.268C31.1827 29.3267 31.288 29.4107 31.36 29.52C31.4347 29.6293 31.472 29.76 31.472 29.912C31.472 30.0827 31.4227 30.2267 31.324 30.344C31.2253 30.4613 31.0907 30.54 30.92 30.58V30.52C31.1173 30.5493 31.2707 30.624 31.38 30.744C31.4893 30.864 31.544 31.02 31.544 31.212C31.544 31.4627 31.4587 31.6573 31.288 31.796C31.12 31.932 30.8853 32 30.584 32H29.58ZM29.8 31.612H30.52C30.7013 31.612 30.8347 31.5773 30.92 31.508C31.0053 31.436 31.048 31.3293 31.048 31.188C31.048 31.044 31.0053 30.9373 30.92 30.868C30.8347 30.7987 30.7013 30.764 30.52 30.764H29.8V31.612ZM29.8 30.376H30.452C30.628 30.376 30.7587 30.3427 30.844 30.276C30.932 30.2067 30.976 30.1053 30.976 29.972C30.976 29.8387 30.932 29.7387 30.844 29.672C30.7587 29.6027 30.628 29.568 30.452 29.568H29.8V30.376ZM32.3219 32C32.2392 32 32.1752 31.9773 32.1299 31.932C32.0846 31.884 32.0619 31.8187 32.0619 31.736V29.428C32.0619 29.3427 32.0832 29.2787 32.1259 29.236C32.1712 29.1907 32.2352 29.168 32.3179 29.168C32.4006 29.168 32.4632 29.1907 32.5059 29.236C32.5512 29.2787 32.5739 29.3427 32.5739 29.428V31.564H33.7339C33.8059 31.564 33.8606 31.5827 33.8979 31.62C33.9379 31.6573 33.9579 31.7107 33.9579 31.78C33.9579 31.8493 33.9379 31.904 33.8979 31.944C33.8606 31.9813 33.8059 32 33.7339 32H32.3219ZM35.4197 32.04C35.1477 32.04 34.909 31.98 34.7037 31.86C34.501 31.74 34.3437 31.572 34.2317 31.356C34.1197 31.1373 34.0637 30.8813 34.0637 30.588C34.0637 30.3667 34.0957 30.168 34.1597 29.992C34.2237 29.8133 34.3143 29.6613 34.4317 29.536C34.5517 29.408 34.6943 29.3107 34.8597 29.244C35.0277 29.1747 35.2143 29.14 35.4197 29.14C35.6943 29.14 35.933 29.2 36.1357 29.32C36.3383 29.4373 36.4957 29.604 36.6077 29.82C36.7197 30.036 36.7757 30.2907 36.7757 30.584C36.7757 30.8053 36.7437 31.0053 36.6797 31.184C36.6157 31.3627 36.5237 31.516 36.4037 31.644C36.2863 31.772 36.1437 31.8707 35.9757 31.94C35.8103 32.0067 35.625 32.04 35.4197 32.04ZM35.4197 31.6C35.593 31.6 35.7397 31.56 35.8597 31.48C35.9823 31.4 36.0757 31.284 36.1397 31.132C36.2063 30.98 36.2397 30.7987 36.2397 30.588C36.2397 30.268 36.1677 30.02 36.0237 29.844C35.8823 29.668 35.681 29.58 35.4197 29.58C35.249 29.58 35.1023 29.62 34.9797 29.7C34.857 29.7773 34.7623 29.892 34.6957 30.044C34.6317 30.1933 34.5997 30.3747 34.5997 30.588C34.5997 30.9053 34.6717 31.1533 34.8157 31.332C34.9597 31.5107 35.161 31.6 35.4197 31.6ZM38.6083 32.04C38.3149 32.04 38.0629 31.9813 37.8523 31.864C37.6443 31.744 37.4843 31.576 37.3723 31.36C37.2603 31.1413 37.2043 30.884 37.2043 30.588C37.2043 30.3667 37.2363 30.168 37.3003 29.992C37.3643 29.8133 37.4563 29.6613 37.5763 29.536C37.6963 29.408 37.8429 29.3107 38.0163 29.244C38.1923 29.1747 38.3896 29.14 38.6083 29.14C38.7549 29.14 38.8989 29.1587 39.0403 29.196C39.1816 29.2333 39.3056 29.2867 39.4123 29.356C39.4683 29.3907 39.5056 29.4333 39.5243 29.484C39.5429 29.532 39.5469 29.58 39.5363 29.628C39.5256 29.6733 39.5029 29.712 39.4683 29.744C39.4363 29.776 39.3949 29.7947 39.3443 29.8C39.2963 29.8027 39.2429 29.7853 39.1843 29.748C39.1016 29.6947 39.0123 29.656 38.9163 29.632C38.8203 29.608 38.7229 29.596 38.6243 29.596C38.4349 29.596 38.2749 29.6347 38.1443 29.712C38.0136 29.7893 37.9149 29.9013 37.8483 30.048C37.7816 30.1947 37.7483 30.3747 37.7483 30.588C37.7483 30.7987 37.7816 30.9787 37.8483 31.128C37.9149 31.2773 38.0136 31.3907 38.1443 31.468C38.2749 31.5453 38.4349 31.584 38.6243 31.584C38.7256 31.584 38.8256 31.572 38.9243 31.548C39.0229 31.5213 39.1163 31.4813 39.2043 31.428C39.2629 31.3933 39.3149 31.3787 39.3603 31.384C39.4083 31.3867 39.4483 31.4027 39.4803 31.432C39.5123 31.4613 39.5336 31.4987 39.5443 31.544C39.5549 31.5867 39.5523 31.632 39.5363 31.68C39.5203 31.7253 39.4883 31.7653 39.4403 31.8C39.3336 31.8773 39.2056 31.9373 39.0563 31.98C38.9096 32.02 38.7603 32.04 38.6083 32.04ZM40.271 32.032C40.1884 32.032 40.1244 32.0093 40.079 31.964C40.0364 31.916 40.015 31.8507 40.015 31.768V29.408C40.015 29.3227 40.0364 29.2587 40.079 29.216C40.1244 29.1707 40.1884 29.148 40.271 29.148C40.3537 29.148 40.4164 29.1707 40.459 29.216C40.5044 29.2587 40.527 29.3227 40.527 29.408V30.428H40.535L41.683 29.276C41.7257 29.2333 41.7684 29.2013 41.811 29.18C41.8537 29.1587 41.9017 29.148 41.955 29.148C42.0324 29.148 42.087 29.168 42.119 29.208C42.1537 29.248 42.167 29.2947 42.159 29.348C42.1537 29.4013 42.1284 29.4507 42.083 29.496L40.915 30.652L40.919 30.42L42.139 31.66C42.195 31.7133 42.2244 31.7693 42.227 31.828C42.2297 31.8867 42.211 31.936 42.171 31.976C42.1337 32.0133 42.0777 32.032 42.003 32.032C41.939 32.032 41.887 32.0187 41.847 31.992C41.8097 31.9653 41.7657 31.9267 41.715 31.876L40.535 30.696H40.527V31.768C40.527 31.8507 40.5057 31.916 40.463 31.964C40.4204 32.0093 40.3564 32.032 40.271 32.032Z" fill="#8BD8BD"/>
<g filter="url(#filter2_d_447_185)">
<path d="M23 13H26L25.7273 46H23.2727L23 13Z" fill="url(#paint2_linear_447_185)" shape-rendering="crispEdges"/>
</g>
<g filter="url(#filter3_d_447_185)">
<path d="M24.5 4L30.1292 13.75H18.8708L24.5 4Z" fill="white"/>
</g>
<defs>
<filter id="filter0_i_447_185" x="0" y="14" width="23" height="41" filterUnits="userSpaceOnUse" color-interpolation-filters="sRGB">
<feFlood flood-opacity="0" result="BackgroundImageFix"/>
<feBlend mode="normal" in="SourceGraphic" in2="BackgroundImageFix" result="shape"/>
<feColorMatrix in="SourceAlpha" type="matrix" values="0 0 0 0 0 0 0 0 0 0 0 0 0 0 0 0 0 0 127 0" result="hardAlpha"/>
<feOffset/>
<feGaussianBlur stdDeviation="2.5"/>
<feComposite in2="hardAlpha" operator="arithmetic" k2="-1" k3="1"/>
<feColorMatrix type="matrix" values="0 0 0 0 0.545098 0 0 0 0 0.847059 0 0 0 0 0.741176 0 0 0 0.38 0"/>
<feBlend mode="normal" in2="shape" result="effect1_innerShadow_447_185"/>
</filter>
<filter id="filter1_i_447_185" x="25" y="14" width="23" height="41" filterUnits="userSpaceOnUse" color-interpolation-filters="sRGB">
<feFlood flood-opacity="0" result="BackgroundImageFix"/>
<feBlend mode="normal" in="SourceGraphic" in2="BackgroundImageFix" result="shape"/>
<feColorMatrix in="SourceAlpha" type="matrix" values="0 0 0 0 0 0 0 0 0 0 0 0 0 0 0 0 0 0 127 0" result="hardAlpha"/>
<feOffset/>
<feGaussianBlur stdDeviation="2.5"/>
<feComposite in2="hardAlpha" operator="arithmetic" k2="-1" k3="1"/>
<feColorMatrix type="matrix" values="0 0 0 0 0.545098 0 0 0 0 0.847059 0 0 0 0 0.741176 0 0 0 0.38 0"/>
<feBlend mode="normal" in2="shape" result="effect1_innerShadow_447_185"/>
</filter>
<filter id="filter2_d_447_185" x="19" y="9" width="11" height="41" filterUnits="userSpaceOnUse" color-interpolation-filters="sRGB">
<feFlood flood-opacity="0" result="BackgroundImageFix"/>
<feColorMatrix in="SourceAlpha" type="matrix" values="0 0 0 0 0 0 0 0 0 0 0 0 0 0 0 0 0 0 127 0" result="hardAlpha"/>
<feOffset/>
<feGaussianBlur stdDeviation="2"/>
<feComposite in2="hardAlpha" operator="out"/>
<feColorMatrix type="matrix" values="0 0 0 0 0.545098 0 0 0 0 0.847059 0 0 0 0 0.741176 0 0 0 0.36 0"/>
<feBlend mode="normal" in2="BackgroundImageFix" result="effect1_dropShadow_447_185"/>
<feBlend mode="normal" in="SourceGraphic" in2="effect1_dropShadow_447_185" result="shape"/>
</filter>
<filter id="filter3_d_447_185" x="15.4358" y="0.564972" width="18.1284" height="16.6201" filterUnits="userSpaceOnUse" color-interpolation-filters="sRGB">
<feFlood flood-opacity="0" result="BackgroundImageFix"/>
<feColorMatrix in="SourceAlpha" type="matrix" values="0 0 0 0 0 0 0 0 0 0 0 0 0 0 0 0 0 0 127 0" result="hardAlpha"/>
<feOffset/>
<feGaussianBlur stdDeviation="1.71751"/>
<feComposite in2="hardAlpha" operator="out"/>
<feColorMatrix type="matrix" values="0 0 0 0 0.545098 0 0 0 0 0.847059 0 0 0 0 0.741176 0 0 0 0.25 0"/>
<feBlend mode="normal" in2="BackgroundImageFix" result="effect1_dropShadow_447_185"/>
<feBlend mode="normal" in="SourceGraphic" in2="effect1_dropShadow_447_185" result="shape"/>
</filter>
<linearGradient id="paint0_linear_447_185" x1="21.8162" y1="15.0513" x2="-3.4095" y2="52.4306" gradientUnits="userSpaceOnUse">
<stop offset="0.523958" stop-color="white"/>
</linearGradient>
<linearGradient id="paint1_linear_447_185" x1="26.1838" y1="15.0513" x2="51.4095" y2="52.4306" gradientUnits="userSpaceOnUse">
<stop offset="0.523958" stop-color="white"/>
</linearGradient>
<linearGradient id="paint2_linear_447_185" x1="24.5" y1="13" x2="24.6193" y2="263.603" gradientUnits="userSpaceOnUse">
<stop offset="0.0447915" stop-color="white"/>
<stop offset="0.461458" stop-color="white" stop-opacity="0.39"/>
</linearGradient>
</defs>
</svg>
