<svg width="56" height="57" viewBox="0 0 56 57" fill="none" xmlns="http://www.w3.org/2000/svg">
<g filter="url(#filter0_d_1105_416)">
<path d="M27.56 2.01174C27.5599 2.01188 27.5597 2.01197 27.5594 2.012C27.5087 2.01948 27.4584 2.03191 27.4109 2.0489L3.54987 10.9757C3.2983 11.0732 3.13852 11.2932 3.1447 11.5336C3.1447 24.9227 6.32042 33.4445 10.9637 39.4106C15.607 45.3775 21.6863 48.7566 27.3256 51.9081C27.5472 52.0293 27.8287 52.0293 28.0503 51.9081C33.6893 48.7569 39.7683 45.3774 44.4122 39.4106C49.0559 33.444 52.2312 24.9216 52.2312 11.5336C52.2373 11.2932 52.0776 11.0732 51.826 10.9757L27.9649 2.0489C27.8376 2.00078 27.6965 1.98789 27.5606 2.01148C27.5604 2.01152 27.5602 2.01161 27.56 2.01174Z" fill="url(#paint0_linear_1105_416)"/>
<path fill-rule="evenodd" clip-rule="evenodd" d="M27.7061 51.9987C27.8258 51.9959 27.9448 51.9657 28.0503 51.908L28.1371 51.8594C33.7516 48.7221 39.7921 45.3467 44.4121 39.4105C49.0559 33.4439 52.2311 24.9215 52.2311 11.5335C52.2373 11.2931 52.0775 11.0731 51.826 10.9756L27.9649 2.04881C27.8827 2.01773 27.7947 2.00135 27.7061 2V51.9987Z" fill="url(#paint1_linear_1105_416)"/>
<path d="M12.966 28.1418C12.8951 28.1418 12.8375 28.1255 12.7932 28.0931C12.7519 28.0606 12.7268 28.0177 12.7179 27.9646C12.709 27.9084 12.7194 27.8464 12.7489 27.7785L13.9186 25.1865C13.957 25.1009 14.0028 25.0403 14.056 25.0049C14.1121 24.9665 14.1756 24.9473 14.2465 24.9473C14.3144 24.9473 14.375 24.9665 14.4282 25.0049C14.4843 25.0403 14.5315 25.1009 14.5699 25.1865L15.7441 27.7785C15.7766 27.8464 15.7884 27.9084 15.7795 27.9646C15.7707 28.0207 15.7456 28.065 15.7042 28.0975C15.6628 28.127 15.6082 28.1418 15.5403 28.1418C15.4576 28.1418 15.3926 28.1226 15.3453 28.0842C15.301 28.0428 15.2611 27.9808 15.2257 27.8981L14.9377 27.2291L15.1769 27.3841H13.3072L13.5465 27.2291L13.2629 27.8981C13.2245 27.9838 13.1846 28.0458 13.1433 28.0842C13.1019 28.1226 13.0428 28.1418 12.966 28.1418ZM14.2376 25.5986L13.6173 27.074L13.5021 26.9322H14.982L14.8712 27.074L14.2465 25.5986H14.2376Z" fill="white"/>
<path d="M16.5334 28.1063C16.4359 28.1063 16.3606 28.0812 16.3074 28.031C16.2572 27.9779 16.2321 27.9025 16.2321 27.8051V25.284C16.2321 25.1865 16.2572 25.1127 16.3074 25.0625C16.3606 25.0093 16.4359 24.9827 16.5334 24.9827H17.3929C17.9157 24.9827 18.3189 25.1171 18.6025 25.3859C18.889 25.6547 19.0323 26.0402 19.0323 26.5423C19.0323 26.7934 18.9953 27.0164 18.9215 27.2113C18.8506 27.4033 18.7443 27.5658 18.6025 27.6987C18.4637 27.8316 18.2923 27.9336 18.0885 28.0044C17.8877 28.0724 17.6558 28.1063 17.3929 28.1063H16.5334ZM16.7992 27.6367H17.3575C17.5406 27.6367 17.6986 27.6145 17.8316 27.5702C17.9674 27.523 18.0797 27.455 18.1683 27.3664C18.2599 27.2749 18.3278 27.1611 18.3721 27.0253C18.4164 26.8864 18.4386 26.7255 18.4386 26.5423C18.4386 26.176 18.3485 25.9028 18.1683 25.7226C17.9881 25.5425 17.7178 25.4524 17.3575 25.4524H16.7992V27.6367Z" fill="white"/>
<path d="M31.8814 28.1064C31.7839 28.1064 31.7086 28.0813 31.6554 28.0311C31.6052 27.9779 31.5801 27.9026 31.5801 27.8051V25.2841C31.5801 25.1866 31.6052 25.1128 31.6554 25.0625C31.7086 25.0094 31.7839 24.9828 31.8814 24.9828H32.9447C33.1633 24.9828 33.3494 25.0153 33.503 25.0803C33.6566 25.1452 33.7733 25.2383 33.853 25.3594C33.9357 25.4805 33.9771 25.6252 33.9771 25.7936C33.9771 25.9826 33.9224 26.1421 33.8131 26.2721C33.7039 26.4021 33.5547 26.4892 33.3656 26.5335V26.4671C33.5842 26.4996 33.7541 26.5823 33.8752 26.7152C33.9963 26.8481 34.0568 27.0209 34.0568 27.2336C34.0568 27.5112 33.9623 27.7269 33.7733 27.8805C33.5872 28.0311 33.3272 28.1064 32.9935 28.1064H31.8814ZM32.1251 27.6766H32.9226C33.1234 27.6766 33.2711 27.6382 33.3656 27.5614C33.4602 27.4817 33.5074 27.3635 33.5074 27.207C33.5074 27.0475 33.4602 26.9293 33.3656 26.8525C33.2711 26.7757 33.1234 26.7373 32.9226 26.7373H32.1251V27.6766ZM32.1251 26.3076H32.8473C33.0422 26.3076 33.1869 26.2706 33.2815 26.1968C33.3789 26.12 33.4277 26.0078 33.4277 25.8601C33.4277 25.7124 33.3789 25.6016 33.2815 25.5278C33.1869 25.451 33.0422 25.4126 32.8473 25.4126H32.1251V26.3076Z" fill="white"/>
<path d="M34.9185 28.1064C34.8269 28.1064 34.756 28.0813 34.7058 28.0311C34.6556 27.9779 34.6305 27.9056 34.6305 27.814V25.2575C34.6305 25.163 34.6541 25.0921 34.7014 25.0448C34.7516 24.9946 34.8225 24.9695 34.9141 24.9695C35.0056 24.9695 35.0751 24.9946 35.1223 25.0448C35.1725 25.0921 35.1976 25.163 35.1976 25.2575V27.6235H36.4825C36.5623 27.6235 36.6228 27.6442 36.6642 27.6855C36.7085 27.7269 36.7307 27.7859 36.7307 27.8627C36.7307 27.9395 36.7085 28.0001 36.6642 28.0444C36.6228 28.0857 36.5623 28.1064 36.4825 28.1064H34.9185Z" fill="white"/>
<path d="M38.3498 28.1507C38.0485 28.1507 37.7841 28.0843 37.5567 27.9513C37.3322 27.8184 37.1579 27.6323 37.0339 27.3931C36.9098 27.1509 36.8478 26.8673 36.8478 26.5424C36.8478 26.2972 36.8832 26.0772 36.9541 25.8822C37.025 25.6843 37.1254 25.5159 37.2554 25.3771C37.3883 25.2353 37.5464 25.1275 37.7295 25.0537C37.9156 24.9769 38.1224 24.9385 38.3498 24.9385C38.654 24.9385 38.9184 25.0049 39.1429 25.1379C39.3674 25.2678 39.5417 25.4524 39.6657 25.6917C39.7898 25.931 39.8518 26.213 39.8518 26.538C39.8518 26.7831 39.8164 27.0047 39.7455 27.2026C39.6746 27.4005 39.5727 27.5703 39.4397 27.7121C39.3098 27.8539 39.1518 27.9632 38.9657 28.04C38.7825 28.1138 38.5772 28.1507 38.3498 28.1507ZM38.3498 27.6634C38.5418 27.6634 38.7043 27.619 38.8372 27.5304C38.973 27.4418 39.0764 27.3133 39.1473 27.145C39.2212 26.9766 39.2581 26.7757 39.2581 26.5424C39.2581 26.1879 39.1783 25.9132 39.0188 25.7183C38.8623 25.5233 38.6393 25.4259 38.3498 25.4259C38.1608 25.4259 37.9983 25.4702 37.8624 25.5588C37.7265 25.6444 37.6217 25.7714 37.5478 25.9398C37.477 26.1052 37.4415 26.3061 37.4415 26.5424C37.4415 26.8939 37.5213 27.1686 37.6808 27.3665C37.8403 27.5644 38.0633 27.6634 38.3498 27.6634Z" fill="white"/>
<path d="M41.8818 28.1507C41.5568 28.1507 41.2777 28.0857 41.0443 27.9558C40.814 27.8229 40.6367 27.6368 40.5127 27.3975C40.3886 27.1553 40.3266 26.8703 40.3266 26.5424C40.3266 26.2972 40.362 26.0772 40.4329 25.8822C40.5038 25.6843 40.6057 25.5159 40.7386 25.3771C40.8716 25.2353 41.034 25.1275 41.226 25.0537C41.421 24.9769 41.6395 24.9385 41.8818 24.9385C42.0442 24.9385 42.2037 24.9592 42.3603 25.0005C42.5168 25.0419 42.6542 25.1009 42.7723 25.1777C42.8344 25.2161 42.8757 25.2634 42.8964 25.3195C42.9171 25.3727 42.9215 25.4259 42.9097 25.479C42.8979 25.5292 42.8727 25.5721 42.8343 25.6075C42.7989 25.643 42.7531 25.6636 42.697 25.6695C42.6438 25.6725 42.5848 25.6533 42.5198 25.6119C42.4282 25.5529 42.3293 25.51 42.2229 25.4835C42.1166 25.4569 42.0088 25.4436 41.8995 25.4436C41.6898 25.4436 41.5125 25.4864 41.3678 25.5721C41.2231 25.6577 41.1138 25.7818 41.0399 25.9442C40.9661 26.1067 40.9292 26.3061 40.9292 26.5424C40.9292 26.7757 40.9661 26.9751 41.0399 27.1405C41.1138 27.3059 41.2231 27.4315 41.3678 27.5171C41.5125 27.6028 41.6898 27.6456 41.8995 27.6456C42.0117 27.6456 42.1225 27.6323 42.2318 27.6058C42.3411 27.5762 42.4444 27.5319 42.5419 27.4728C42.6069 27.4344 42.6645 27.4182 42.7147 27.4241C42.7679 27.427 42.8122 27.4448 42.8476 27.4773C42.8831 27.5098 42.9067 27.5511 42.9185 27.6013C42.9303 27.6486 42.9274 27.6988 42.9097 27.752C42.8919 27.8022 42.8565 27.8465 42.8033 27.8849C42.6852 27.9705 42.5434 28.037 42.378 28.0843C42.2155 28.1286 42.0501 28.1507 41.8818 28.1507Z" fill="white"/>
<path d="M43.7235 28.1419C43.632 28.1419 43.5611 28.1168 43.5109 28.0665C43.4636 28.0134 43.44 27.941 43.44 27.8494V25.2353C43.44 25.1408 43.4636 25.0699 43.5109 25.0227C43.5611 24.9724 43.632 24.9473 43.7235 24.9473C43.8151 24.9473 43.8845 24.9724 43.9318 25.0227C43.982 25.0699 44.0071 25.1408 44.0071 25.2353V26.3652H44.016L45.2876 25.0891C45.3348 25.0419 45.3821 25.0064 45.4294 24.9828C45.4766 24.9592 45.5298 24.9473 45.5889 24.9473C45.6745 24.9473 45.7351 24.9695 45.7705 25.0138C45.8089 25.0581 45.8237 25.1098 45.8148 25.1689C45.8089 25.2279 45.7809 25.2826 45.7306 25.3328L44.4369 26.6133L44.4413 26.3563L45.7927 27.7298C45.8547 27.7889 45.8872 27.8509 45.8901 27.9159C45.8931 27.9809 45.8724 28.0355 45.8281 28.0798C45.7868 28.1212 45.7247 28.1419 45.642 28.1419C45.5711 28.1419 45.5135 28.1271 45.4692 28.0976C45.4279 28.068 45.3791 28.0252 45.323 27.9691L44.016 26.662H44.0071V27.8494C44.0071 27.941 43.9835 28.0134 43.9362 28.0665C43.8889 28.1168 43.8181 28.1419 43.7235 28.1419Z" fill="white"/>
</g>
<defs>
<filter id="filter0_d_1105_416" x="0.0984299" y="0.061572" width="55.1791" height="56.0912" filterUnits="userSpaceOnUse" color-interpolation-filters="sRGB">
<feFlood flood-opacity="0" result="BackgroundImageFix"/>
<feColorMatrix in="SourceAlpha" type="matrix" values="0 0 0 0 0 0 0 0 0 0 0 0 0 0 0 0 0 0 127 0" result="hardAlpha"/>
<feOffset dy="1.10767"/>
<feGaussianBlur stdDeviation="1.52305"/>
<feComposite in2="hardAlpha" operator="out"/>
<feColorMatrix type="matrix" values="0 0 0 0 0.0708333 0 0 0 0 0.1 0 0 0 0 0.0825 0 0 0 0.85 0"/>
<feBlend mode="normal" in2="BackgroundImageFix" result="effect1_dropShadow_1105_416"/>
<feBlend mode="normal" in="SourceGraphic" in2="effect1_dropShadow_1105_416" result="shape"/>
</filter>
<linearGradient id="paint0_linear_1105_416" x1="6.39163" y1="26.9137" x2="50.3128" y2="26.9137" gradientUnits="userSpaceOnUse">
<stop offset="0.307292" stop-color="#0E523A"/>
<stop offset="1" stop-color="#05281C"/>
</linearGradient>
<linearGradient id="paint1_linear_1105_416" x1="27.7545" y1="27.0629" x2="50.8254" y2="27.0629" gradientUnits="userSpaceOnUse">
<stop stop-color="#15654A"/>
<stop offset="0.75" stop-color="#18A575"/>
</linearGradient>
</defs>
</svg>
