<svg width="188" height="54" viewBox="0 0 188 54" fill="none" xmlns="http://www.w3.org/2000/svg">
<path d="M181.311 53.2389H6.58557C2.95508 53.2389 0 50.4066 0 46.9394V6.29018C0 2.82166 2.95508 0 6.58557 0H181.311C184.94 0 188 2.82166 188 6.29018V46.9394C188 50.4066 184.94 53.2389 181.311 53.2389Z" fill="black"/>
<path d="M42.4565 26.8263C42.4147 22.4755 46.26 20.3589 46.4358 20.2604C44.2581 17.2865 40.8826 16.8802 39.6965 16.8478C36.8615 16.5684 34.1116 18.4367 32.6675 18.4367C31.1945 18.4367 28.9706 16.8748 26.5738 16.9207C23.4895 16.9653 20.6041 18.6378 19.0216 21.235C15.7557 26.5306 18.1915 34.3128 21.3204 38.5933C22.8856 40.6897 24.7146 43.0304 27.1085 42.9481C29.4506 42.8577 30.3254 41.5496 33.1517 41.5496C35.9521 41.5496 36.7736 42.9481 39.2151 42.8955C41.7287 42.8577 43.3112 40.7896 44.8216 38.6743C46.6304 36.2715 47.3568 33.9051 47.3856 33.7836C47.3265 33.7647 42.5041 32.0409 42.4565 26.8263Z" fill="white"/>
<path d="M37.9697 14.5365C39.2376 13.1513 40.1051 11.2669 39.8643 9.35449C38.0292 9.42546 35.7342 10.4634 34.4126 11.8181C33.2434 13.0119 32.1989 14.9687 32.4687 16.8088C34.5301 16.9431 36.6467 15.9001 37.9697 14.5365Z" fill="white"/>
<path d="M74.462 40.1516H71.2568L69.5011 34.9432H63.3984L61.726 40.1516H58.6055L64.6517 22.4199H68.3861L74.462 40.1516ZM68.9719 32.7581L67.3841 28.128C67.2161 27.6549 66.9014 26.5411 66.4371 24.7876H66.3806C66.1957 25.5418 65.8979 26.6556 65.4886 28.128L63.9291 32.7581H68.9719V32.7581Z" fill="white"/>
<path d="M90.3181 33.7299C90.3181 35.9528 89.6949 37.71 88.4486 38.9999C87.3322 40.1481 85.946 40.7216 84.2913 40.7216C82.5051 40.7216 81.2221 40.1032 80.4406 38.8664H80.3841V45.7518H77.3714V31.6581C77.3714 30.2606 77.3332 28.8263 77.2598 27.3552H79.9093L80.0775 29.427H80.134C81.1387 27.866 82.6634 27.0869 84.7096 27.0869C86.3092 27.0869 87.6445 27.6958 88.7128 28.9149C89.7839 30.1353 90.3181 31.7399 90.3181 33.7299ZM87.2489 33.8361C87.2489 32.5639 86.9521 31.5151 86.3558 30.6897C85.7044 29.8288 84.8297 29.3984 83.7331 29.3984C82.9898 29.3984 82.3144 29.6381 81.711 30.1108C81.1062 30.5875 80.7105 31.21 80.5254 31.981C80.4321 32.3405 80.3855 32.6348 80.3855 32.8663V35.0457C80.3855 35.9964 80.6879 36.7987 81.2927 37.4539C81.8975 38.1091 82.6832 38.436 83.6497 38.436C84.7844 38.436 85.6676 38.0137 86.2993 37.1719C86.9323 36.3288 87.2489 35.2173 87.2489 33.8361Z" fill="white"/>
<path d="M105.244 33.7299C105.244 35.9528 104.621 37.71 103.373 38.9999C102.258 40.1481 100.871 40.7216 99.2164 40.7216C97.4301 40.7216 96.1469 40.1032 95.3667 38.8664H95.3102V45.7518H92.2972V31.6581C92.2972 30.2606 92.259 28.8263 92.1855 27.3552H94.8354L95.0036 29.427H95.0601C96.0635 27.866 97.5884 27.0869 99.6361 27.0869C101.235 27.0869 102.57 27.6958 103.641 28.9149C104.708 30.1353 105.244 31.7399 105.244 33.7299ZM102.174 33.8361C102.174 32.5639 101.876 31.5151 101.28 30.6897C100.628 29.8288 99.7563 29.3984 98.6582 29.3984C97.9134 29.3984 97.2393 29.6381 96.6344 30.1108C96.0296 30.5875 95.6353 31.21 95.4501 31.981C95.3583 32.3405 95.3102 32.6348 95.3102 32.8663V35.0457C95.3102 35.9964 95.6126 36.7987 96.2147 37.4539C96.8196 38.1077 97.6053 38.436 98.5748 38.436C99.7096 38.436 100.593 38.0137 101.225 37.1719C101.858 36.3288 102.174 35.2173 102.174 33.8361Z" fill="white"/>
<path d="M122.963 35.732C122.963 37.2742 122.386 38.529 121.227 39.4976C119.954 40.5562 118.181 41.0848 115.903 41.0848C113.8 41.0848 112.114 40.7088 110.838 39.9554L111.563 37.5344C112.938 38.3055 114.446 38.6925 116.09 38.6925C117.269 38.6925 118.187 38.4445 118.847 37.9513C119.503 37.4581 119.831 36.796 119.831 35.9704C119.831 35.2347 119.56 34.6148 119.019 34.1121C118.48 33.6093 117.579 33.142 116.322 32.7101C112.9 31.5262 111.19 29.7919 111.19 27.5112C111.19 26.0208 111.79 24.7987 112.99 23.8477C114.185 22.8954 115.78 22.4199 117.775 22.4199C119.553 22.4199 121.031 22.7074 122.21 23.281L121.427 25.6488C120.326 25.093 119.08 24.815 117.686 24.815C116.585 24.815 115.724 25.0671 115.107 25.5684C114.586 26.0167 114.325 26.563 114.325 27.2101C114.325 27.9268 114.623 28.5194 115.222 28.9853C115.743 29.4159 116.691 29.8818 118.065 30.3845C119.747 31.0126 120.982 31.7469 121.777 32.5889C122.568 33.4281 122.963 34.4785 122.963 35.732Z" fill="white"/>
<path d="M131.36 29.7901H128.36V36.2141C128.36 37.848 128.888 38.6643 129.948 38.6643C130.435 38.6643 130.838 38.6188 131.157 38.5278L131.233 40.7601C130.696 40.9766 129.99 41.0855 129.116 41.0855C128.041 41.0855 127.2 40.7312 126.594 40.0238C125.99 39.3151 125.686 38.1265 125.686 36.4568V29.7873H123.898V27.5812H125.686V25.1585L128.36 24.2871V27.5812H131.36V29.7901Z" fill="white"/>
<path d="M147.215 33.9611C147.215 36.024 146.628 37.7177 145.458 39.0422C144.232 40.4059 142.603 41.0856 140.574 41.0856C138.617 41.0856 137.06 40.4324 135.898 39.1261C134.737 37.8198 134.156 36.1709 134.156 34.1835C134.156 32.1037 134.754 30.4002 135.953 29.0757C137.149 27.7499 138.763 27.0869 140.793 27.0869C142.749 27.0869 144.323 27.7401 145.511 29.0478C146.648 30.3163 147.215 31.9541 147.215 33.9611ZM144.141 34.0576C144.141 32.8198 143.879 31.7583 143.347 30.873C142.726 29.8016 141.838 29.2673 140.687 29.2673C139.497 29.2673 138.592 29.803 137.971 30.873C137.439 31.7597 137.177 32.838 137.177 34.1135C137.177 35.3513 137.439 36.4128 137.971 37.2968C138.612 38.3681 139.507 38.9024 140.661 38.9024C141.792 38.9024 142.68 38.3569 143.32 37.2688C143.866 36.3667 144.141 35.294 144.141 34.0576Z" fill="white"/>
<path d="M157.478 29.8513C157.171 29.7993 156.844 29.7726 156.501 29.7726C155.411 29.7726 154.568 30.1501 153.975 30.9066C153.459 31.5737 153.2 32.4169 153.2 33.4349V40.1524H150.103L150.132 31.3816C150.132 29.906 150.093 28.5625 150.016 27.3511H152.715L152.828 29.8006H152.914C153.241 28.9587 153.757 28.281 154.463 27.7727C155.153 27.3151 155.899 27.0869 156.703 27.0869C156.989 27.0869 157.248 27.1056 157.478 27.1389V29.8513Z" fill="white"/>
<path d="M170.534 33.4759C170.534 34.0113 170.498 34.4625 170.423 34.8311H161.329C161.364 36.1596 161.804 37.1757 162.648 37.8764C163.415 38.5028 164.406 38.8167 165.623 38.8167C166.969 38.8167 168.198 38.6051 169.302 38.1805L169.777 40.2546C168.486 40.8095 166.962 41.0856 165.203 41.0856C163.088 41.0856 161.427 40.4718 160.218 39.2455C159.012 38.0193 158.408 36.3727 158.408 34.307C158.408 32.2791 158.97 30.5904 160.095 29.2437C161.272 27.8058 162.863 27.0869 164.865 27.0869C166.831 27.0869 168.32 27.8058 169.331 29.2437C170.131 30.3858 170.534 31.7985 170.534 33.4759ZM167.643 32.701C167.663 31.8153 167.465 31.0501 167.055 30.4041C166.53 29.573 165.724 29.1582 164.639 29.1582C163.648 29.1582 162.842 29.5632 162.226 30.376C161.721 31.0221 161.421 31.7971 161.329 32.6996H167.643V32.701Z" fill="white"/>
<path d="M67.9326 12.4189C67.9326 13.9066 67.4425 15.0265 66.4636 15.7786C65.5569 16.4725 64.2683 16.8201 62.5993 16.8201C61.7717 16.8201 61.0636 16.7872 60.4707 16.7215V8.5928C61.2441 8.47904 62.0772 8.4209 62.977 8.4209C64.5668 8.4209 65.7651 8.73563 66.5732 9.3651C67.4786 10.0767 67.9326 11.0942 67.9326 12.4189ZM66.3983 12.4556C66.3983 11.4911 66.1178 10.7517 65.5569 10.236C64.9959 9.72154 64.1767 9.46369 63.0978 9.46369C62.6396 9.46369 62.2494 9.4915 61.9259 9.54964V15.7293C62.105 15.7546 62.4327 15.7659 62.9089 15.7659C64.0225 15.7659 64.882 15.4841 65.4874 14.9203C66.0928 14.3566 66.3983 13.535 66.3983 12.4556Z" fill="white"/>
<path d="M76.3299 13.4953C76.3299 14.4586 76.0372 15.2477 75.4517 15.8669C74.838 16.5033 74.0249 16.8208 73.0095 16.8208C72.0309 16.8208 71.2517 16.5166 70.6705 15.9054C70.0907 15.2956 69.8008 14.5263 69.8008 13.599C69.8008 12.6291 70.0992 11.8332 70.6988 11.2154C71.2984 10.5976 72.1044 10.2881 73.1198 10.2881C74.0984 10.2881 74.8847 10.5923 75.48 11.2022C76.0457 11.7947 76.3299 12.56 76.3299 13.4953ZM74.7928 13.5405C74.7928 12.9626 74.6598 12.467 74.3954 12.0538C74.0843 11.5542 73.6416 11.3045 73.0661 11.3045C72.4707 11.3045 72.0182 11.5542 71.7071 12.0538C71.4412 12.467 71.3097 12.9705 71.3097 13.5657C71.3097 14.1437 71.4426 14.6392 71.7071 15.0524C72.0281 15.552 72.475 15.8018 73.0519 15.8018C73.6176 15.8018 74.0616 15.548 74.3812 15.0392C74.6556 14.618 74.7928 14.1184 74.7928 13.5405Z" fill="white"/>
<path d="M87.3897 10.2881L85.3492 16.8208H84.0212L83.176 14.3893C82.9616 13.7823 82.7873 13.1789 82.6517 12.5802H82.6254C82.4995 13.1955 82.3252 13.7978 82.1011 14.3893L81.2033 16.8208H79.8601L77.9414 10.2881H79.3586L80.1686 13.8833C80.347 14.5128 80.4937 15.1127 80.6113 15.6805H80.6375C80.7454 15.2125 80.9239 14.6162 81.1757 13.8952L82.1931 10.2881H83.176L84.1692 13.8381C84.3836 14.476 84.5579 15.0901 84.6921 15.6817H84.7322C84.8305 15.1056 84.9785 14.4915 85.1749 13.8381L85.9724 10.2881H87.3897Z" fill="white"/>
<path d="M94.991 16.8208H93.5715V13.1561C93.5715 12.0268 93.1435 11.4622 92.2848 11.4622C91.8636 11.4622 91.5237 11.6169 91.2596 11.9277C90.9982 12.2385 90.8654 12.605 90.8654 13.0244V16.8194H89.446V12.2508C89.446 11.6888 89.4284 11.0794 89.3945 10.4197H90.6419L90.7083 11.4201H90.7476C90.9128 11.1093 91.1593 10.8527 91.483 10.6478C91.8677 10.4089 92.2984 10.2881 92.7697 10.2881C93.3657 10.2881 93.8614 10.4808 94.2555 10.8677C94.7458 11.3414 94.991 12.0485 94.991 12.9878V16.8208V16.8208Z" fill="white"/>
<path d="M98.7136 16.8207H97.3105V12.1545V7.48828H98.7136V16.8207Z" fill="white"/>
<path d="M107.103 13.4953C107.103 14.4586 106.811 15.2477 106.225 15.8669C105.611 16.5033 104.797 16.8208 103.783 16.8208C102.803 16.8208 102.024 16.5166 101.444 15.9054C100.864 15.2956 100.574 14.5263 100.574 13.599C100.574 12.6291 100.873 11.8332 101.472 11.2154C102.072 10.5976 102.878 10.2881 103.892 10.2881C104.872 10.2881 105.657 10.5923 106.253 11.2022C106.819 11.7947 107.103 12.56 107.103 13.4953ZM105.565 13.5405C105.565 12.9626 105.432 12.467 105.167 12.0538C104.858 11.5542 104.414 11.3045 103.84 11.3045C103.243 11.3045 102.79 11.5542 102.481 12.0538C102.215 12.467 102.083 12.9705 102.083 13.5657C102.083 14.1437 102.216 14.6392 102.481 15.0524C102.802 15.552 103.248 15.8018 103.825 15.8018C104.391 15.8018 104.834 15.548 105.153 15.0392C105.429 14.618 105.565 14.1184 105.565 13.5405Z" fill="white"/>
<path d="M114.569 16.6786H113.208L113.095 15.9572H113.054C112.588 16.5325 111.924 16.8208 111.062 16.8208C110.419 16.8208 109.898 16.6308 109.506 16.2535C109.151 15.9107 108.973 15.4842 108.973 14.978C108.973 14.2128 109.32 13.6295 110.018 13.2256C110.715 12.8217 111.696 12.6238 112.958 12.6331V12.5161C112.958 11.6911 112.487 11.2792 111.542 11.2792C110.87 11.2792 110.277 11.4347 109.765 11.7429L109.457 10.8288C110.09 10.4688 110.873 10.2881 111.795 10.2881C113.577 10.2881 114.471 11.1517 114.471 12.8789V15.1853C114.471 15.8111 114.504 16.3093 114.569 16.6786ZM112.996 14.5263V13.5604C111.324 13.5339 110.488 13.955 110.488 14.8226C110.488 15.1494 110.584 15.3939 110.779 15.5573C110.974 15.7207 111.223 15.8018 111.519 15.8018C111.852 15.8018 112.163 15.7048 112.446 15.5121C112.731 15.3182 112.906 15.0724 112.971 14.7708C112.987 14.703 112.996 14.6206 112.996 14.5263Z" fill="white"/>
<path d="M122.963 16.6778H121.613L121.542 15.6662H121.5C121.069 16.4359 120.335 16.8207 119.304 16.8207C118.479 16.8207 117.793 16.5228 117.249 15.9268C116.705 15.3308 116.434 14.5571 116.434 13.607C116.434 12.5875 116.728 11.7616 117.32 11.1309C117.893 10.543 118.595 10.249 119.431 10.249C120.35 10.249 120.992 10.5336 121.358 11.1042H121.387V7.48828H122.909V14.9807C122.909 15.594 122.926 16.1593 122.963 16.6778ZM121.387 14.0213V12.971C121.387 12.7892 121.373 12.6422 121.345 12.53C121.259 12.1933 121.075 11.91 120.795 11.6815C120.512 11.453 120.171 11.3381 119.778 11.3381C119.211 11.3381 118.767 11.5452 118.44 11.9608C118.117 12.3763 117.953 12.9068 117.953 13.5549C117.953 14.1776 118.108 14.6827 118.42 15.0716C118.749 15.4858 119.193 15.6929 119.749 15.6929C120.248 15.6929 120.647 15.5206 120.95 15.1745C121.243 14.8551 121.387 14.4703 121.387 14.0213Z" fill="white"/>
<path d="M135.092 13.4953C135.092 14.4586 134.799 15.2477 134.213 15.8669C133.6 16.5033 132.788 16.8208 131.771 16.8208C130.794 16.8208 130.015 16.5166 129.432 15.9054C128.852 15.2956 128.562 14.5263 128.562 13.599C128.562 12.6291 128.861 11.8332 129.46 11.2154C130.06 10.5976 130.866 10.2881 131.883 10.2881C132.86 10.2881 133.648 10.5923 134.242 11.2022C134.807 11.7947 135.092 12.56 135.092 13.4953ZM133.556 13.5405C133.556 12.9626 133.423 12.467 133.159 12.0538C132.846 11.5542 132.405 11.3045 131.828 11.3045C131.234 11.3045 130.781 11.5542 130.469 12.0538C130.203 12.467 130.071 12.9705 130.071 13.5657C130.071 14.1437 130.204 14.6392 130.469 15.0524C130.79 15.552 131.237 15.8018 131.814 15.8018C132.379 15.8018 132.825 15.548 133.144 15.0392C133.417 14.618 133.556 14.1184 133.556 13.5405Z" fill="white"/>
<path d="M142.553 16.8208H141.135V13.1561C141.135 12.0268 140.707 11.4622 139.847 11.4622C139.425 11.4622 139.085 11.6169 138.823 11.9277C138.56 12.2385 138.428 12.605 138.428 13.0244V16.8194H137.007V12.2508C137.007 11.6888 136.991 11.0794 136.957 10.4197H138.203L138.27 11.4201H138.309C138.476 11.1093 138.722 10.8527 139.045 10.6478C139.431 10.4089 139.86 10.2881 140.333 10.2881C140.928 10.2881 141.424 10.4808 141.818 10.8677C142.31 11.3414 142.553 12.0485 142.553 12.9878V16.8208V16.8208Z" fill="white"/>
<path d="M153.746 11.1711H151.871V14.3848C151.871 15.2016 152.204 15.61 152.864 15.61C153.169 15.61 153.422 15.5875 153.622 15.5412L153.666 16.6569C153.33 16.7664 152.888 16.8211 152.344 16.8211C151.671 16.8211 151.148 16.6443 150.77 16.2906C150.39 15.937 150.201 15.3419 150.201 14.5069V11.1711H149.082V10.0694H150.201V8.85692L151.87 8.42188V10.068H153.744V11.1711H153.746Z" fill="white"/>
<path d="M161.221 16.8207H159.787V13.1838C159.787 12.0371 159.355 11.4631 158.49 11.4631C157.826 11.4631 157.372 11.7956 157.123 12.4605C157.081 12.6003 157.056 12.7713 157.056 12.9721V16.8194H155.625V7.48828H157.056V11.3437H157.084C157.535 10.6421 158.181 10.292 159.019 10.292C159.612 10.292 160.103 10.4847 160.493 10.8714C160.978 11.3532 161.221 12.0697 161.221 13.0169V16.8207V16.8207Z" fill="white"/>
<path d="M168.671 13.2689C168.671 13.5192 168.652 13.7295 168.619 13.9013H164.422C164.44 14.5216 164.641 14.9943 165.029 15.3218C165.384 15.6146 165.842 15.7611 166.403 15.7611C167.024 15.7611 167.59 15.6626 168.1 15.4642L168.319 16.4334C167.723 16.6917 167.02 16.8208 166.207 16.8208C165.232 16.8208 164.464 16.5346 163.909 15.9621C163.351 15.3897 163.074 14.6215 163.074 13.6576C163.074 12.7111 163.332 11.9229 163.851 11.2946C164.394 10.6236 165.127 10.2881 166.052 10.2881C166.957 10.2881 167.645 10.6236 168.11 11.2946C168.485 11.8271 168.671 12.4861 168.671 13.2689ZM167.335 12.9081C167.346 12.4941 167.254 12.1373 167.064 11.8364C166.821 11.449 166.451 11.2546 165.951 11.2546C165.494 11.2546 165.121 11.4437 164.837 11.8231C164.605 12.1253 164.467 12.4861 164.422 12.9081H167.335Z" fill="white"/>
</svg>
