<svg width="227" height="67" viewBox="0 0 227 67" fill="none" xmlns="http://www.w3.org/2000/svg">
<path d="M218.924 67H7.95173C3.5681 67 0 63.4356 0 59.0722V7.91605C0 3.551 3.5681 0 7.95173 0H218.924C223.306 0 227 3.551 227 7.91605V59.0722C227 63.4356 223.306 67 218.924 67Z" fill="black"/>
<path d="M225 58.5846C225 62.129 222.116 65 218.55 65H7.45879C3.89375 65 1 62.129 1 58.5846V7.42379C1 3.88107 3.89375 1 7.45879 1H218.548C222.116 1 224.998 3.88107 224.998 7.42379L225 58.5846Z" fill="black"/>
<path d="M49.3978 32.6375C49.3503 27.1431 53.7207 24.47 53.9205 24.3456C51.4454 20.59 47.609 20.0769 46.2609 20.036C43.0388 19.6831 39.9133 22.0425 38.272 22.0425C36.5979 22.0425 34.0703 20.0701 31.3462 20.128C27.8407 20.1843 24.5613 22.2965 22.7627 25.5764C19.0508 32.2642 21.8192 42.092 25.3755 47.4978C27.1544 50.1453 29.2331 53.1013 31.954 52.9973C34.6158 52.8831 35.6101 51.2312 38.8224 51.2312C42.0052 51.2312 42.9389 52.9973 45.7138 52.9308C48.5706 52.8831 50.3692 50.2714 52.0859 47.6001C54.1416 44.5656 54.9672 41.5772 55 41.4238C54.9328 41.3999 49.4518 39.2229 49.3978 32.6375Z" fill="white"/>
<path d="M43.6716 16.9409C45.1974 15.0856 46.2414 12.5614 45.9516 10C43.7432 10.0951 40.9814 11.4853 39.391 13.2998C37.9839 14.8988 36.727 17.5197 37.0517 19.9844C39.5324 20.1643 42.0795 18.7673 43.6716 16.9409Z" fill="white"/>
<path d="M90 53H86.1594L84.0556 46.2441H76.7431L74.7391 53H71L78.2449 30H82.7196L90 53ZM83.4215 43.4098L81.5189 37.404C81.3177 36.7904 80.9405 35.3456 80.3842 33.0712H80.3165C80.095 34.0494 79.7381 35.4942 79.2477 37.404L77.379 43.4098H83.4215Z" fill="white"/>
<path d="M109 45.1859C109 47.9251 108.236 50.0903 106.709 51.6799C105.342 53.0948 103.643 53.8014 101.616 53.8014C99.427 53.8014 97.8549 53.0394 96.8974 51.5154H96.8282V60H93.1368V42.6329C93.1368 40.9108 93.09 39.1434 93 37.3307H96.2464L96.4524 39.8836H96.5217C97.7527 37.9601 99.6209 37 102.128 37C104.088 37 105.724 37.7503 107.033 39.2525C108.346 40.7564 109 42.7336 109 45.1859ZM105.239 45.3168C105.239 43.7491 104.876 42.4567 104.145 41.4395C103.347 40.3787 102.275 39.8484 100.932 39.8484C100.021 39.8484 99.1933 40.1438 98.454 40.7262C97.7129 41.3137 97.2281 42.0807 97.0013 43.0307C96.887 43.4738 96.8299 43.8364 96.8299 44.1217V46.8073C96.8299 47.9788 97.2004 48.9675 97.9415 49.7748C98.6825 50.5821 99.6452 50.985 100.829 50.985C102.22 50.985 103.302 50.4646 104.076 49.4273C104.852 48.3884 105.239 47.0188 105.239 45.3168Z" fill="white"/>
<path d="M127 45.1859C127 47.9251 126.236 50.0903 124.707 51.6799C123.341 53.0948 121.642 53.8014 119.615 53.8014C117.426 53.8014 115.854 53.0394 114.898 51.5154H114.829V60H111.137V42.6329C111.137 40.9108 111.09 39.1434 111 37.3307H114.247L114.453 39.8836H114.522C115.752 37.9601 117.62 37 120.129 37C122.087 37 123.724 37.7503 125.036 39.2525C126.344 40.7564 127 42.7336 127 45.1859ZM123.239 45.3168C123.239 43.7491 122.874 42.4567 122.143 41.4395C121.345 40.3787 120.276 39.8484 118.931 39.8484C118.018 39.8484 117.192 40.1438 116.451 40.7262C115.71 41.3137 115.227 42.0807 115 43.0307C114.887 43.4738 114.829 43.8364 114.829 44.1217V46.8073C114.829 47.9788 115.199 48.9675 115.937 49.7748C116.678 50.5805 117.641 50.985 118.829 50.985C120.219 50.985 121.301 50.4646 122.075 49.4273C122.851 48.3884 123.239 47.0188 123.239 45.3168Z" fill="white"/>
<path d="M150 46.4039C150 48.3043 149.286 49.8505 147.852 51.0442C146.277 52.3486 144.084 53 141.266 53C138.665 53 136.579 52.5366 135 51.6082L135.898 48.625C137.598 49.5752 139.464 50.052 141.497 50.052C142.956 50.052 144.092 49.7464 144.907 49.1387C145.719 48.5309 146.125 47.715 146.125 46.6977C146.125 45.7911 145.79 45.0272 145.12 44.4077C144.453 43.7882 143.339 43.2124 141.784 42.6802C137.551 41.2213 135.436 39.0842 135.436 36.2738C135.436 34.4372 136.177 32.9312 137.662 31.7594C139.141 30.5859 141.114 30 143.581 30C145.781 30 147.609 30.3542 149.068 31.061L148.1 33.9788C146.737 33.2939 145.196 32.9514 143.472 32.9514C142.109 32.9514 141.045 33.262 140.282 33.8798C139.637 34.4321 139.313 35.1053 139.313 35.9028C139.313 36.7858 139.682 37.5161 140.423 38.0903C141.068 38.6208 142.24 39.195 143.941 39.8145C146.021 40.5884 147.549 41.4933 148.532 42.5308C149.511 43.565 150 44.8593 150 46.4039Z" fill="white"/>
<path d="M160 38.8793H155.979V46.9101C155.979 48.9527 156.687 49.9732 158.107 49.9732C158.759 49.9732 159.3 49.9163 159.728 49.8025L159.829 52.5932C159.11 52.8638 158.164 53 156.992 53C155.551 53 154.425 52.557 153.612 51.6727C152.803 50.7868 152.396 49.3009 152.396 47.2135V38.8759H150V36.118H152.396V33.0894L155.979 32V36.118H160V38.8793Z" fill="white"/>
<path d="M178 45.839C178 48.4917 177.282 50.6695 175.848 52.3726C174.345 54.126 172.35 55 169.863 55C167.466 55 165.558 54.1602 164.135 52.4805C162.712 50.8008 162 48.6805 162 46.125C162 43.4508 162.732 41.2604 164.201 39.5573C165.667 37.8524 167.645 37 170.132 37C172.529 37 174.457 37.8398 175.913 39.5213C177.305 41.1525 178 43.2584 178 45.839ZM174.234 45.9631C174.234 44.3716 173.913 43.0066 173.261 41.8682C172.5 40.4907 171.412 39.8037 170.003 39.8037C168.544 39.8037 167.435 40.4925 166.675 41.8682C166.023 43.0084 165.701 44.3949 165.701 46.0351C165.701 47.6266 166.023 48.9916 166.675 50.1282C167.459 51.5057 168.556 52.1927 169.97 52.1927C171.356 52.1927 172.444 51.4914 173.228 50.0922C173.897 48.9323 174.234 47.5529 174.234 45.9631Z" fill="white"/>
<path d="M190 40.5969C189.63 40.5292 189.236 40.4944 188.822 40.4944C187.507 40.4944 186.49 40.9857 185.775 41.97C185.153 42.8379 184.841 43.9351 184.841 45.2596V54H181.105L181.14 42.588C181.14 40.668 181.093 38.9199 181 37.3437H184.255L184.392 40.5309H184.496C184.89 39.4355 185.512 38.5537 186.364 37.8923C187.197 37.2968 188.096 37 189.066 37C189.411 37 189.723 37.0243 190 37.0677V40.5969Z" fill="white"/>
<path d="M206 44.7588C206 45.409 205.956 45.957 205.863 46.4045H194.613C194.657 48.0179 195.2 49.2518 196.245 50.1027C197.193 50.8635 198.419 51.2447 199.925 51.2447C201.59 51.2447 203.11 50.9877 204.477 50.472L205.064 52.9908C203.467 53.6647 201.582 54 199.406 54C196.789 54 194.734 53.2546 193.239 51.7654C191.748 50.2763 191 48.2766 191 45.768C191 43.3054 191.695 41.2547 193.086 39.6192C194.542 37.8731 196.511 37 198.987 37C201.42 37 203.261 37.8731 204.512 39.6192C205.502 41.0062 206 42.7217 206 44.7588ZM202.424 43.8177C202.449 42.7421 202.204 41.8129 201.696 41.0283C201.047 40.0191 200.05 39.5154 198.708 39.5154C197.482 39.5154 196.484 40.0072 195.723 40.9943C195.098 41.7789 194.727 42.72 194.613 43.816H202.424V43.8177Z" fill="white"/>
<path d="M82 16.236C82 18.1843 81.4088 19.651 80.2281 20.636C79.1345 21.5448 77.5804 22 75.5674 22C74.5692 22 73.7151 21.957 73 21.8709V11.2251C73.9328 11.0761 74.9377 11 76.0229 11C77.9405 11 79.3857 11.4122 80.3604 12.2366C81.4524 13.1685 82 14.5011 82 16.236ZM80.1494 16.284C80.1494 15.0209 79.8111 14.0525 79.1345 13.3771C78.4579 12.7034 77.4699 12.3657 76.1686 12.3657C75.6159 12.3657 75.1453 12.4021 74.7551 12.4783V20.5714C74.9712 20.6045 75.3664 20.6194 75.9408 20.6194C77.284 20.6194 78.3206 20.2503 79.0508 19.512C79.781 18.7737 80.1494 17.6977 80.1494 16.284Z" fill="white"/>
<path d="M92 18.4185C92 19.7456 91.6413 20.8328 90.924 21.6858C90.172 22.5625 89.1757 23 87.9316 23C86.7325 23 85.7778 22.5808 85.0656 21.7389C84.3552 20.8987 84 19.8389 84 18.5613C84 17.2251 84.3656 16.1287 85.1003 15.2776C85.835 14.4265 86.8226 14 88.0667 14C89.2658 14 90.2292 14.4192 90.9586 15.2593C91.6517 16.0757 92 17.13 92 18.4185ZM90.1165 18.4808C90.1165 17.6846 89.9536 17.0018 89.6296 16.4326C89.2484 15.7444 88.7061 15.4002 88.0009 15.4002C87.2714 15.4002 86.7169 15.7444 86.3357 16.4326C86.01 17.0018 85.8488 17.6955 85.8488 18.5156C85.8488 19.3118 86.0117 19.9945 86.3357 20.5638C86.729 21.252 87.2766 21.5961 87.9835 21.5961C88.6766 21.5961 89.2207 21.2465 89.6123 20.5455C89.9484 19.9652 90.1165 19.277 90.1165 18.4808Z" fill="white"/>
<path d="M105 14L102.624 22H101.078L100.094 18.5261C99.8447 17.6589 99.6417 16.7968 99.4839 15.9415H99.4533C99.3067 16.8205 99.1038 17.681 98.8429 18.5261L97.7977 22H96.2338L94 14H95.7346L96.593 17.8031C96.8007 18.7026 96.9715 19.5596 97.1083 20.3708H97.1389C97.2646 19.7022 97.4723 18.8502 97.7654 17.8201L98.8429 14.0017H100.218L101.251 17.7387C101.5 18.65 101.703 19.5274 101.859 20.3725H101.906C102.021 19.5494 102.193 18.672 102.422 17.7387L103.343 14.0017H105V14Z" fill="white"/>
<path d="M114 23H112.225V17.9512C112.225 16.3954 111.689 15.6175 110.615 15.6175C110.088 15.6175 109.663 15.8307 109.333 16.2589C109.006 16.6871 108.84 17.192 108.84 17.7698V22.9981H107.064V16.7039C107.064 15.9298 107.042 15.0902 107 14.1814H108.56L108.643 15.5595H108.692C108.899 15.1313 109.207 14.7779 109.612 14.4955C110.093 14.1664 110.632 14 111.222 14C111.967 14 112.587 14.2655 113.08 14.7985C113.693 15.4511 114 16.4253 114 17.7193V23Z" fill="white"/>
<path d="M119 23H117V11H119V23Z" fill="white"/>
<path d="M130 18.4185C130 19.7456 129.641 20.8328 128.924 21.6858C128.172 22.5625 127.174 23 125.932 23C124.731 23 123.776 22.5808 123.066 21.7389C122.355 20.8987 122 19.8389 122 18.5613C122 17.2251 122.366 16.1287 123.1 15.2776C123.835 14.4265 124.823 14 126.065 14C127.266 14 128.227 14.4192 128.959 15.2593C129.652 16.0757 130 17.13 130 18.4185ZM128.115 18.4808C128.115 17.6846 127.952 17.0018 127.628 16.4326C127.248 15.7444 126.704 15.4002 126.001 15.4002C125.27 15.4002 124.715 15.7444 124.336 16.4326C124.01 17.0018 123.849 17.6955 123.849 18.5156C123.849 19.3118 124.012 19.9945 124.336 20.5638C124.729 21.252 125.277 21.5961 125.984 21.5961C126.677 21.5961 127.219 21.2465 127.611 20.5455C127.948 19.9652 128.115 19.277 128.115 18.4808Z" fill="white"/>
<path d="M138 22.8041H136.298L136.157 21.8103H136.104C135.522 22.6028 134.692 23 133.614 23C132.809 23 132.158 22.7383 131.667 22.2184C131.222 21.7462 131 21.1586 131 20.4613C131 19.407 131.434 18.6034 132.308 18.047C133.18 17.4905 134.406 17.2178 135.985 17.2306V17.0696C135.985 15.9329 135.395 15.3655 134.214 15.3655C133.373 15.3655 132.632 15.5796 131.991 16.0043L131.606 14.745C132.398 14.2489 133.377 14 134.531 14C136.759 14 137.877 15.1897 137.877 17.5692V20.7468C137.877 21.6089 137.919 22.2953 138 22.8041ZM136.032 19.8389V18.5082C133.941 18.4716 132.896 19.0519 132.896 20.2471C132.896 20.6974 133.015 21.0342 133.259 21.2593C133.503 21.4844 133.814 21.5961 134.185 21.5961C134.601 21.5961 134.99 21.4625 135.345 21.1971C135.701 20.9298 135.92 20.5912 136.001 20.1757C136.021 20.0824 136.032 19.9689 136.032 19.8389Z" fill="white"/>
<path d="M149 22.8162H147.347L147.26 21.5155H147.208C146.68 22.5052 145.78 23 144.516 23C143.507 23 142.666 22.6168 141.999 21.8505C141.332 21.0842 141 20.0893 141 18.8677C141 17.5567 141.361 16.4948 142.086 15.6838C142.788 14.9278 143.649 14.5498 144.673 14.5498C145.798 14.5498 146.586 14.9158 147.034 15.6495H147.069V11H148.934V20.634C148.934 21.4227 148.956 22.1495 149 22.8162ZM147.069 19.4003V18.0498C147.069 17.8162 147.052 17.6271 147.018 17.4828C146.913 17.0498 146.687 16.6856 146.344 16.3918C145.997 16.0979 145.58 15.9502 145.098 15.9502C144.403 15.9502 143.859 16.2165 143.459 16.7509C143.062 17.2852 142.861 17.9674 142.861 18.8007C142.861 19.6014 143.052 20.2509 143.434 20.7509C143.837 21.2835 144.381 21.5498 145.062 21.5498C145.674 21.5498 146.163 21.3282 146.534 20.8832C146.893 20.4725 147.069 19.9777 147.069 19.4003Z" fill="white"/>
<path d="M163 18.4185C163 19.7456 162.641 20.8328 161.924 21.6858C161.172 22.5625 160.177 23 158.932 23C157.734 23 156.78 22.5808 156.066 21.7389C155.355 20.8987 155 19.8389 155 18.5613C155 17.2251 155.366 16.1287 156.1 15.2776C156.835 14.4265 157.823 14 159.068 14C160.266 14 161.231 14.4192 161.959 15.2593C162.652 16.0757 163 17.13 163 18.4185ZM161.118 18.4808C161.118 17.6846 160.955 17.0018 160.631 16.4326C160.248 15.7444 159.708 15.4002 159.001 15.4002C158.273 15.4002 157.719 15.7444 157.336 16.4326C157.01 17.0018 156.849 17.6955 156.849 18.5156C156.849 19.3118 157.012 19.9945 157.336 20.5638C157.729 21.252 158.277 21.5961 158.984 21.5961C159.677 21.5961 160.222 21.2465 160.614 20.5455C160.948 19.9652 161.118 19.277 161.118 18.4808Z" fill="white"/>
<path d="M172 23H170.226V17.9512C170.226 16.3954 169.69 15.6175 168.614 15.6175C168.087 15.6175 167.662 15.8307 167.333 16.2589C167.005 16.6871 166.84 17.192 166.84 17.7698V22.9981H165.063V16.7039C165.063 15.9298 165.042 15.0902 165 14.1814H166.559L166.642 15.5595H166.691C166.9 15.1313 167.208 14.7779 167.611 14.4955C168.094 14.1664 168.631 14 169.223 14C169.967 14 170.587 14.2655 171.08 14.7985C171.695 15.4511 172 16.4253 172 17.7193V23Z" fill="white"/>
<path d="M184 16.2732H182.392V20.0994C182.392 21.0718 182.678 21.5581 183.243 21.5581C183.505 21.5581 183.723 21.5313 183.894 21.4762L183.932 22.8045C183.643 22.9348 183.264 23 182.798 23C182.221 23 181.772 22.7895 181.448 22.3684C181.122 21.9474 180.96 21.2389 180.96 20.2448V16.2732H180V14.9616H180.96V13.518L182.391 13V14.9599H183.999V16.2732H184Z" fill="white"/>
<path d="M193 23H191.206V18.3235C191.206 16.8491 190.666 16.1109 189.584 16.1109C188.753 16.1109 188.185 16.5385 187.874 17.3935C187.821 17.5732 187.79 17.7931 187.79 18.0513V22.9983H186V11H187.79V15.9574H187.824C188.389 15.0553 189.197 14.6051 190.245 14.6051C190.988 14.6051 191.601 14.8528 192.089 15.3502C192.696 15.9696 193 16.8909 193 18.1089V23Z" fill="white"/>
<path d="M203 18.1066C203 18.4514 202.977 18.7412 202.935 18.9778H197.685C197.709 19.8325 197.959 20.4836 198.445 20.9348C198.89 21.3383 199.462 21.54 200.164 21.54C200.941 21.54 201.649 21.4043 202.287 21.131L202.561 22.4663C201.814 22.8221 200.936 23 199.918 23C198.699 23 197.739 22.6057 197.044 21.817C196.346 21.0283 196 19.97 196 18.6421C196 17.3381 196.322 16.2523 196.972 15.3866C197.65 14.4622 198.567 14 199.725 14C200.857 14 201.717 14.4622 202.299 15.3866C202.768 16.1202 203 17.0281 203 18.1066ZM201.33 17.6095C201.343 17.0391 201.228 16.5476 200.991 16.1331C200.687 15.5993 200.224 15.3316 199.598 15.3316C199.026 15.3316 198.56 15.592 198.205 16.1147C197.914 16.5311 197.742 17.0281 197.685 17.6095H201.33Z" fill="white"/>
</svg>
