<svg width="31" height="30" viewBox="0 0 31 30" fill="none" xmlns="http://www.w3.org/2000/svg">
<path d="M26.1864 5C26.6963 5 27.1094 5.49757 27.1094 6.111C27.1094 6.72443 26.696 7.222 26.1864 7.222H4.03238C3.52241 7.222 3.10938 6.72443 3.10938 6.111C3.10938 5.49717 3.52275 5 4.03238 5H26.1864ZM26.1864 13.889C26.6963 13.889 27.1094 14.3866 27.1094 15C27.1094 15.6134 26.696 16.111 26.1864 16.111H4.03238C3.52241 16.111 3.10938 15.6134 3.10938 15C3.10938 14.3862 3.52275 13.889 4.03238 13.889H26.1864ZM26.1864 22.778C26.6963 22.778 27.1094 23.2756 27.1094 23.889C27.1094 24.5024 26.696 25 26.1864 25H4.03238C3.52241 25 3.10938 24.5024 3.10938 23.889C3.10938 23.2752 3.52275 22.778 4.03238 22.778H26.1864Z" fill="white"/>
</svg>
