<svg width="227" height="67" viewBox="0 0 227 67" fill="none" xmlns="http://www.w3.org/2000/svg">
<path d="M219.906 67H7.09375C3.19219 67 0 63.985 0 60.3V6.7C0 3.015 3.19219 0 7.09375 0H219.906C223.808 0 227 3.015 227 6.7V60.3C227 63.985 223.808 67 219.906 67Z" fill="#EFEFEF"/>
<path fill-rule="evenodd" clip-rule="evenodd" d="M203.177 54.1675H203V54H203.177H203V54.1675H203.177Z" fill="white"/>
<path fill-rule="evenodd" clip-rule="evenodd" d="M203.059 54.105C203.059 53.9375 203.059 53.9375 203.059 54.105C202.882 53.9375 202.882 53.9375 203.059 54.105C202.882 54.105 202.882 54.105 203.059 54.105ZM203.059 53.9375C203.059 54.105 203.059 54.105 203.059 53.9375C203.059 54.105 202.882 54.105 203.059 53.9375C202.882 53.9375 203.059 53.9375 203.059 53.9375Z" fill="white"/>
<path fill-rule="evenodd" clip-rule="evenodd" d="M203.237 53.9375H203.06H203.237V54.105V53.9375Z" fill="white"/>
<path d="M17.0748 17.107C16.8016 17.1075 16.5399 17.2166 16.3465 17.4102C16.1531 17.6038 16.0439 17.8665 16.043 18.1407V26.2529C16.043 26.624 16.2401 26.9668 16.5604 27.1523C16.8805 27.3378 17.2752 27.3378 17.5953 27.1523C17.9157 26.9668 18.1128 26.624 18.1128 26.2529V19.1824H25.1567C25.5207 19.1743 25.8537 18.9749 26.0333 18.6571C26.213 18.3394 26.213 17.9503 26.0333 17.6325C25.8537 17.3147 25.5207 17.1153 25.1567 17.1072L17.0748 17.107ZM39.9189 17.107C39.5554 17.1327 39.232 17.3481 39.0675 17.6745C38.9032 18.0008 38.9216 18.3899 39.1164 18.6988C39.3112 19.008 39.6535 19.1915 40.0179 19.1822H47.0618V26.2527C47.0618 26.6238 47.2589 26.9665 47.5793 27.1521C47.8994 27.3376 48.2941 27.3376 48.6142 27.1521C48.9345 26.9665 49.1316 26.6238 49.1316 26.2527V18.1404C49.1307 17.8651 49.0206 17.6017 48.8261 17.4079C48.6313 17.214 48.3679 17.1056 48.0937 17.1068H40.0182C39.9852 17.1052 39.9522 17.1052 39.9192 17.1068L39.9189 17.107ZM21.7153 21.7255C21.4411 21.7246 21.1777 21.8328 20.9832 22.0266C20.7884 22.2205 20.6785 22.4841 20.6774 22.7592V29.8908C20.6762 30.1673 20.7854 30.433 20.9802 30.6284C21.1752 30.8241 21.4397 30.9334 21.7152 30.9325H28.1329C28.4075 30.9318 28.6704 30.8218 28.864 30.6263C29.0577 30.4309 29.1659 30.1664 29.1647 29.8908V22.7592C29.1636 22.4849 29.0544 22.2225 28.8612 22.0287C28.6678 21.8351 28.4059 21.7262 28.1329 21.7255L21.7153 21.7255ZM30.9423 21.7255C30.5788 21.7512 30.2555 21.9669 30.0912 22.293C29.9266 22.6193 29.9451 23.0084 30.1399 23.3174C30.3347 23.6266 30.6772 23.81 31.0414 23.8007H32.9962V30.7948C32.99 31.0739 33.0961 31.3437 33.2907 31.5433C33.4853 31.743 33.7518 31.8555 34.0302 31.8555C34.3085 31.8555 34.5749 31.743 34.7694 31.5433C34.964 31.3437 35.0704 31.0739 35.0642 30.7948V22.7596C35.063 22.4858 34.9541 22.2234 34.7614 22.03C34.5684 21.8364 34.3069 21.727 34.0341 21.7259H31.0414C31.0084 21.7243 30.9754 21.7243 30.9424 21.7259L30.9423 21.7255ZM37.1018 21.7255H37.102C36.8292 21.7267 36.5677 21.836 36.3748 22.0296C36.182 22.223 36.0731 22.4854 36.072 22.7592V29.8908C36.071 30.166 36.1788 30.4302 36.372 30.6257C36.5652 30.821 36.8276 30.9315 37.102 30.9326H43.5296C43.8038 30.9315 44.0665 30.821 44.2594 30.6257C44.4526 30.4303 44.5606 30.166 44.5595 29.8908V22.7592C44.5586 22.4855 44.4496 22.223 44.2567 22.0296C44.0637 21.836 43.8025 21.7267 43.5297 21.7255H37.1018ZM22.7457 23.8007H27.0955V28.857H22.7457V23.8007ZM38.1399 23.8007H42.492V28.8572H38.1401L38.1399 23.8007ZM21.5481 32.5801H21.5483C21.1848 32.6058 20.8614 32.8214 20.6971 33.1475C20.5326 33.4738 20.5513 33.8629 20.7458 34.1719C20.9406 34.4811 21.2831 34.6645 21.6473 34.6552H30.1353V44.65C30.1343 44.9266 30.2433 45.1922 30.4381 45.3879C30.6331 45.5834 30.8976 45.6927 31.1734 45.6918H34.546H34.5457C34.8241 45.698 35.0929 45.5913 35.2919 45.396C35.4908 45.2008 35.603 44.9333 35.603 44.6542C35.603 44.3749 35.4908 44.1073 35.2919 43.9121C35.0929 43.7168 34.8241 43.6103 34.5457 43.6165H32.2032V33.6134C32.202 33.3397 32.0933 33.0773 31.9004 32.8839C31.7074 32.6902 31.4462 32.5809 31.1734 32.5798H21.6473C21.6143 32.5781 21.5813 32.5781 21.5483 32.5798L21.5481 32.5801ZM34.287 32.7626H34.2873C34.0126 32.763 33.7498 32.8733 33.5561 33.0685C33.3625 33.264 33.2542 33.5287 33.2554 33.8041V38.6072C33.2552 38.8828 33.3641 39.1471 33.5582 39.3419C33.7523 39.5369 34.0156 39.6464 34.2903 39.6464C34.565 39.6464 34.8283 39.5369 35.0224 39.3419C35.2165 39.1471 35.3254 38.8828 35.3254 38.6072V34.8399H43.5304C43.9001 34.8399 44.2417 34.6418 44.4265 34.3204C44.6114 33.9991 44.6114 33.6031 44.4265 33.2818C44.2417 32.9603 43.9001 32.7625 43.5304 32.7625L34.287 32.7626ZM37.1025 36.4711C36.8281 36.4722 36.5657 36.5827 36.3725 36.778C36.1793 36.9732 36.0716 37.2377 36.0725 37.5129V44.6421C36.0662 44.9214 36.1724 45.1913 36.3672 45.3909C36.5618 45.5906 36.8281 45.7031 37.1065 45.7031C37.3848 45.7031 37.6514 45.5906 37.8459 45.3909C38.0405 45.1913 38.1467 44.9214 38.1404 44.6421V38.5463H42.4923V44.6421C42.4863 44.9214 42.5925 45.1913 42.787 45.3909C42.9816 45.5906 43.2481 45.7031 43.5263 45.7031C43.8046 45.7031 44.0712 45.5906 44.2658 45.3909C44.4603 45.1913 44.5665 44.9214 44.5603 44.6421V37.5129C44.5614 37.2377 44.4534 36.9732 44.2602 36.778C44.0673 36.5827 43.8046 36.4722 43.5304 36.4711H37.1025ZM21.609 36.4852V36.4854C21.3535 36.5109 21.117 36.6311 20.945 36.822C20.7729 37.0131 20.6778 37.2613 20.678 37.5189V44.6505C20.6769 44.927 20.786 45.1927 20.9808 45.3884C21.1758 45.5838 21.4403 45.6932 21.7159 45.6922H28.1335C28.4082 45.6915 28.6711 45.5815 28.8647 45.3861C29.0583 45.1908 29.1666 44.9261 29.1654 44.6505V37.5189C29.1643 37.2447 29.0551 36.9822 28.8619 36.7886C28.6685 36.595 28.4066 36.4859 28.1335 36.4855H21.7159C21.6803 36.4836 21.6446 36.4836 21.609 36.4855V36.4852ZM22.7459 38.5607H27.0957V43.6169H22.7459V38.5607ZM17.0591 40.1171C16.7863 40.1217 16.5265 40.2347 16.3363 40.4309C16.1459 40.6271 16.0407 40.8909 16.0434 41.1646V49.2692C16.0423 49.5446 16.1505 49.8093 16.3441 50.0045C16.5376 50.2 16.8007 50.3103 17.0753 50.3107H25.1573C25.4357 50.317 25.7045 50.2104 25.9035 50.0152C26.1024 49.8199 26.2146 49.5524 26.2146 49.2731C26.2146 48.9938 26.1024 48.7263 25.9035 48.531C25.7046 48.3358 25.4357 48.2292 25.1573 48.2355H18.1134V41.1649C18.1162 40.8845 18.0056 40.6149 17.8071 40.4176C17.6087 40.2202 17.3389 40.1118 17.0594 40.1174L17.0591 40.1171ZM48.0779 40.1171C47.8052 40.1217 47.5453 40.2347 47.3551 40.4309C47.1647 40.6271 47.0595 40.8909 47.0622 41.1646V48.2352H40.0183C39.6544 48.2433 39.3213 48.4427 39.1418 48.7604C38.962 49.0782 38.962 49.4673 39.1418 49.7851C39.3213 50.1028 39.6544 50.3022 40.0183 50.3104H48.0938C48.3694 50.3115 48.6341 50.202 48.8289 50.0065C49.0239 49.8108 49.1329 49.5454 49.1317 49.2688V41.1643C49.1345 40.8838 49.0239 40.6142 48.8254 40.4169C48.627 40.2196 48.3572 40.1112 48.0777 40.1167L48.0779 40.1171Z" fill="black"/>
<path d="M68.7476 41.3156C67.9956 41.3156 67.2676 41.2516 66.5636 41.1236C65.8596 41.0116 65.1956 40.8356 64.5716 40.5956C63.9476 40.3556 63.3876 40.0596 62.8916 39.7076C62.6836 39.5636 62.5316 39.3876 62.4356 39.1796C62.3556 38.9716 62.3316 38.7716 62.3636 38.5796C62.4116 38.3716 62.4996 38.1956 62.6276 38.0516C62.7716 37.9076 62.9396 37.8196 63.1316 37.7876C63.3236 37.7556 63.5316 37.8196 63.7556 37.9796C64.4916 38.4756 65.2596 38.8356 66.0596 39.0596C66.8756 39.2836 67.7716 39.3956 68.7476 39.3956C70.1556 39.3956 71.1876 39.1396 71.8436 38.6276C72.5156 38.1156 72.8516 37.4436 72.8516 36.6116C72.8516 35.9236 72.6116 35.3876 72.1316 35.0036C71.6516 34.6036 70.8436 34.2916 69.7076 34.0676L67.1636 33.5396C65.6596 33.2196 64.5316 32.6916 63.7796 31.9556C63.0436 31.2196 62.6756 30.2356 62.6756 29.0036C62.6756 28.2516 62.8276 27.5716 63.1316 26.9636C63.4356 26.3396 63.8676 25.8036 64.4276 25.3556C64.9876 24.9076 65.6436 24.5636 66.3956 24.3236C67.1636 24.0836 68.0116 23.9636 68.9396 23.9636C69.9316 23.9636 70.8596 24.0996 71.7236 24.3716C72.6036 24.6436 73.3956 25.0436 74.0996 25.5716C74.2916 25.7156 74.4196 25.8916 74.4836 26.0996C74.5476 26.2916 74.5556 26.4836 74.5076 26.6756C74.4756 26.8676 74.3876 27.0276 74.2436 27.1556C74.1156 27.2836 73.9476 27.3556 73.7396 27.3716C73.5476 27.3876 73.3316 27.3156 73.0916 27.1556C72.4516 26.7076 71.7956 26.3876 71.1236 26.1956C70.4516 25.9876 69.7156 25.8836 68.9156 25.8836C68.0996 25.8836 67.3876 26.0116 66.7796 26.2676C66.1876 26.5236 65.7236 26.8836 65.3876 27.3476C65.0676 27.7956 64.9076 28.3236 64.9076 28.9316C64.9076 29.6676 65.1316 30.2436 65.5796 30.6596C66.0276 31.0756 66.7796 31.3956 67.8356 31.6196L70.3556 32.1236C71.9556 32.4596 73.1396 32.9796 73.9076 33.6836C74.6916 34.3716 75.0836 35.2996 75.0836 36.4676C75.0836 37.2036 74.9316 37.8676 74.6276 38.4596C74.3396 39.0516 73.9236 39.5636 73.3796 39.9956C72.8356 40.4116 72.1716 40.7396 71.3876 40.9796C70.6036 41.2036 69.7236 41.3156 68.7476 41.3156ZM82.8155 41.3156C81.6315 41.3156 80.6075 41.0676 79.7435 40.5716C78.8795 40.0596 78.2155 39.3476 77.7515 38.4356C77.2875 37.5076 77.0555 36.4196 77.0555 35.1716C77.0555 34.2436 77.1835 33.4116 77.4395 32.6756C77.7115 31.9396 78.0955 31.3156 78.5915 30.8036C79.0875 30.2756 79.6875 29.8756 80.3915 29.6036C81.1115 29.3316 81.9195 29.1956 82.8155 29.1956C83.3755 29.1956 83.9675 29.2836 84.5915 29.4596C85.2155 29.6356 85.7915 29.9236 86.3195 30.3236C86.4955 30.4516 86.6075 30.6036 86.6555 30.7796C86.7035 30.9396 86.7035 31.1076 86.6555 31.2836C86.6235 31.4596 86.5435 31.6116 86.4155 31.7396C86.3035 31.8516 86.1515 31.9156 85.9595 31.9316C85.7835 31.9476 85.5915 31.8916 85.3835 31.7636C84.9995 31.4756 84.5915 31.2676 84.1595 31.1396C83.7435 31.0116 83.3435 30.9476 82.9595 30.9476C82.3675 30.9476 81.8395 31.0436 81.3755 31.2356C80.9275 31.4276 80.5435 31.7076 80.2235 32.0756C79.9195 32.4276 79.6875 32.8676 79.5275 33.3956C79.3675 33.9076 79.2875 34.5076 79.2875 35.1956C79.2875 36.5556 79.6075 37.6276 80.2475 38.4116C80.8875 39.1796 81.7915 39.5636 82.9595 39.5636C83.3435 39.5636 83.7435 39.5076 84.1595 39.3956C84.5755 39.2676 84.9835 39.0596 85.3835 38.7716C85.5915 38.6436 85.7835 38.5956 85.9595 38.6276C86.1355 38.6436 86.2795 38.7156 86.3915 38.8436C86.5195 38.9556 86.5995 39.0996 86.6315 39.2756C86.6635 39.4356 86.6475 39.6036 86.5835 39.7796C86.5355 39.9556 86.4235 40.0996 86.2475 40.2116C85.7355 40.5956 85.1755 40.8756 84.5675 41.0516C83.9595 41.2276 83.3755 41.3156 82.8155 41.3156ZM92.534 41.3156C91.734 41.3156 91.006 41.1556 90.35 40.8356C89.71 40.5156 89.206 40.0836 88.838 39.5396C88.486 38.9956 88.31 38.3876 88.31 37.7156C88.31 36.8516 88.526 36.1716 88.958 35.6756C89.39 35.1796 90.118 34.8276 91.142 34.6196C92.166 34.3956 93.542 34.2836 95.27 34.2836H96.398V35.6756H95.318C94.086 35.6756 93.11 35.7316 92.39 35.8436C91.686 35.9556 91.19 36.1556 90.902 36.4436C90.614 36.7156 90.47 37.0996 90.47 37.5956C90.47 38.2196 90.686 38.7316 91.118 39.1316C91.566 39.5316 92.174 39.7316 92.942 39.7316C93.55 39.7316 94.086 39.5876 94.55 39.2996C95.014 38.9956 95.382 38.5956 95.654 38.0996C95.926 37.5876 96.062 37.0036 96.062 36.3476V33.5876C96.062 32.6436 95.87 31.9636 95.486 31.5476C95.102 31.1156 94.454 30.8996 93.542 30.8996C93.014 30.8996 92.47 30.9716 91.91 31.1156C91.35 31.2596 90.766 31.4836 90.158 31.7876C89.918 31.8996 89.71 31.9396 89.534 31.9076C89.358 31.8596 89.214 31.7636 89.102 31.6196C89.006 31.4596 88.95 31.2916 88.934 31.1156C88.934 30.9236 88.974 30.7396 89.054 30.5636C89.15 30.3876 89.31 30.2596 89.534 30.1796C90.238 29.8276 90.934 29.5796 91.622 29.4356C92.326 29.2756 92.982 29.1956 93.59 29.1956C94.63 29.1956 95.486 29.3636 96.158 29.6996C96.83 30.0196 97.334 30.5236 97.67 31.2116C98.006 31.8836 98.174 32.7476 98.174 33.8036V40.1396C98.174 40.5076 98.086 40.7876 97.91 40.9796C97.734 41.1716 97.478 41.2676 97.142 41.2676C96.822 41.2676 96.566 41.1716 96.374 40.9796C96.198 40.7876 96.11 40.5076 96.11 40.1396V38.4356H96.326C96.198 39.0276 95.958 39.5396 95.606 39.9716C95.254 40.4036 94.814 40.7396 94.286 40.9796C93.774 41.2036 93.19 41.3156 92.534 41.3156ZM102.691 41.2676C102.355 41.2676 102.091 41.1716 101.899 40.9796C101.707 40.7876 101.611 40.5076 101.611 40.1396V30.3476C101.611 29.9796 101.707 29.7076 101.899 29.5316C102.091 29.3396 102.355 29.2436 102.691 29.2436C103.027 29.2436 103.283 29.3396 103.459 29.5316C103.651 29.7076 103.747 29.9796 103.747 30.3476V32.3156L103.483 31.9556C103.819 31.0436 104.363 30.3556 105.115 29.8916C105.883 29.4276 106.755 29.1956 107.731 29.1956C108.675 29.1956 109.451 29.3636 110.059 29.6996C110.667 30.0356 111.123 30.5476 111.427 31.2356C111.731 31.9236 111.883 32.7956 111.883 33.8516V40.1396C111.883 40.5076 111.787 40.7876 111.595 40.9796C111.419 41.1716 111.155 41.2676 110.803 41.2676C110.451 41.2676 110.179 41.1716 109.987 40.9796C109.795 40.7876 109.699 40.5076 109.699 40.1396V33.9716C109.699 32.9316 109.499 32.1716 109.099 31.6916C108.699 31.2116 108.059 30.9716 107.179 30.9716C106.155 30.9716 105.331 31.2916 104.707 31.9316C104.099 32.5556 103.795 33.4036 103.795 34.4756V40.1396C103.795 40.8916 103.427 41.2676 102.691 41.2676ZM135.091 44.1716C135.267 44.4436 135.339 44.6836 135.307 44.8916C135.275 45.1156 135.187 45.2996 135.043 45.4436C134.899 45.6036 134.715 45.6996 134.491 45.7316C134.267 45.7796 134.043 45.7556 133.819 45.6596C133.595 45.5796 133.403 45.4116 133.243 45.1556L131.683 42.6116C131.427 42.1956 131.083 41.8756 130.651 41.6516C130.219 41.4276 129.699 41.3156 129.091 41.3156L130.891 40.5716C131.643 40.5716 132.235 40.7076 132.667 40.9796C133.115 41.2356 133.555 41.7076 133.987 42.3956L135.091 44.1716ZM129.115 41.3156C127.515 41.3156 126.131 40.9636 124.963 40.2596C123.795 39.5396 122.883 38.5316 122.227 37.2356C121.587 35.9236 121.267 34.3876 121.267 32.6276C121.267 31.2996 121.451 30.1076 121.819 29.0516C122.187 27.9796 122.707 27.0676 123.379 26.3156C124.067 25.5476 124.891 24.9636 125.851 24.5636C126.827 24.1636 127.915 23.9636 129.115 23.9636C130.715 23.9636 132.099 24.3156 133.267 25.0196C134.435 25.7236 135.339 26.7236 135.979 28.0196C136.619 29.3156 136.939 30.8436 136.939 32.6036C136.939 33.9316 136.755 35.1316 136.387 36.2036C136.019 37.2756 135.491 38.1956 134.803 38.9636C134.131 39.7316 133.315 40.3156 132.355 40.7156C131.395 41.1156 130.315 41.3156 129.115 41.3156ZM129.115 39.3476C130.267 39.3476 131.251 39.0836 132.067 38.5556C132.883 38.0276 133.507 37.2596 133.939 36.2516C134.387 35.2436 134.611 34.0356 134.611 32.6276C134.611 30.4996 134.131 28.8516 133.171 27.6836C132.227 26.5156 130.875 25.9316 129.115 25.9316C127.963 25.9316 126.971 26.1956 126.139 26.7236C125.323 27.2356 124.699 27.9956 124.267 29.0036C123.835 29.9956 123.619 31.2036 123.619 32.6276C123.619 34.7396 124.099 36.3876 125.059 37.5716C126.019 38.7556 127.371 39.3476 129.115 39.3476ZM141.511 41.2676C141.159 41.2676 140.887 41.1716 140.695 40.9796C140.503 40.7716 140.407 40.4836 140.407 40.1156V25.3076C140.407 24.9396 140.503 24.6596 140.695 24.4676C140.903 24.2756 141.183 24.1796 141.535 24.1796H147.247C149.071 24.1796 150.471 24.6116 151.447 25.4756C152.439 26.3236 152.935 27.5316 152.935 29.0996C152.935 30.1236 152.711 31.0036 152.263 31.7396C151.815 32.4596 151.167 33.0116 150.319 33.3956C149.471 33.7796 148.447 33.9716 147.247 33.9716L147.487 33.6356H148.015C148.655 33.6356 149.207 33.7956 149.671 34.1156C150.151 34.4356 150.575 34.9476 150.943 35.6516L153.151 39.7076C153.295 39.9636 153.359 40.2116 153.343 40.4516C153.327 40.6916 153.239 40.8916 153.079 41.0516C152.919 41.1956 152.687 41.2676 152.383 41.2676C152.063 41.2676 151.807 41.2036 151.615 41.0756C151.423 40.9316 151.255 40.7236 151.111 40.4516L148.519 35.6996C148.167 35.0276 147.767 34.5876 147.319 34.3796C146.871 34.1556 146.271 34.0436 145.519 34.0436H142.639V40.1156C142.639 40.4836 142.543 40.7716 142.351 40.9796C142.175 41.1716 141.895 41.2676 141.511 41.2676ZM142.639 32.3156H146.887C148.167 32.3156 149.127 32.0516 149.767 31.5236C150.407 30.9796 150.727 30.1876 150.727 29.1476C150.727 28.1076 150.407 27.3236 149.767 26.7956C149.127 26.2676 148.167 26.0036 146.887 26.0036H142.639V32.3156ZM167.589 41.3156C166.405 41.3156 165.381 41.0676 164.517 40.5716C163.653 40.0596 162.989 39.3476 162.525 38.4356C162.061 37.5076 161.829 36.4196 161.829 35.1716C161.829 34.2436 161.957 33.4116 162.213 32.6756C162.485 31.9396 162.869 31.3156 163.365 30.8036C163.861 30.2756 164.461 29.8756 165.165 29.6036C165.885 29.3316 166.693 29.1956 167.589 29.1956C168.149 29.1956 168.741 29.2836 169.365 29.4596C169.989 29.6356 170.565 29.9236 171.093 30.3236C171.269 30.4516 171.381 30.6036 171.429 30.7796C171.477 30.9396 171.477 31.1076 171.429 31.2836C171.397 31.4596 171.317 31.6116 171.189 31.7396C171.077 31.8516 170.925 31.9156 170.733 31.9316C170.557 31.9476 170.365 31.8916 170.157 31.7636C169.773 31.4756 169.365 31.2676 168.933 31.1396C168.517 31.0116 168.117 30.9476 167.733 30.9476C167.141 30.9476 166.613 31.0436 166.149 31.2356C165.701 31.4276 165.317 31.7076 164.997 32.0756C164.693 32.4276 164.461 32.8676 164.301 33.3956C164.141 33.9076 164.061 34.5076 164.061 35.1956C164.061 36.5556 164.381 37.6276 165.021 38.4116C165.661 39.1796 166.565 39.5636 167.733 39.5636C168.117 39.5636 168.517 39.5076 168.933 39.3956C169.349 39.2676 169.757 39.0596 170.157 38.7716C170.365 38.6436 170.557 38.5956 170.733 38.6276C170.909 38.6436 171.053 38.7156 171.165 38.8436C171.293 38.9556 171.373 39.0996 171.405 39.2756C171.437 39.4356 171.421 39.6036 171.357 39.7796C171.309 39.9556 171.197 40.0996 171.021 40.2116C170.509 40.5956 169.949 40.8756 169.341 41.0516C168.733 41.2276 168.149 41.3156 167.589 41.3156ZM178.415 41.3156C177.263 41.3156 176.263 41.0676 175.415 40.5716C174.567 40.0756 173.911 39.3716 173.447 38.4596C172.983 37.5476 172.751 36.4756 172.751 35.2436C172.751 34.3156 172.879 33.4836 173.135 32.7476C173.407 31.9956 173.791 31.3556 174.287 30.8276C174.783 30.2996 175.375 29.8996 176.063 29.6276C176.767 29.3396 177.551 29.1956 178.415 29.1956C179.567 29.1956 180.567 29.4436 181.415 29.9396C182.263 30.4356 182.919 31.1396 183.383 32.0516C183.847 32.9476 184.079 34.0116 184.079 35.2436C184.079 36.1716 183.943 37.0116 183.671 37.7636C183.415 38.5156 183.039 39.1556 182.543 39.6836C182.047 40.2116 181.447 40.6196 180.743 40.9076C180.055 41.1796 179.279 41.3156 178.415 41.3156ZM178.415 39.5876C179.119 39.5876 179.727 39.4196 180.239 39.0836C180.767 38.7476 181.167 38.2596 181.439 37.6196C181.727 36.9796 181.871 36.1876 181.871 35.2436C181.871 33.8356 181.559 32.7636 180.935 32.0276C180.311 31.2916 179.471 30.9236 178.415 30.9236C177.727 30.9236 177.119 31.0916 176.591 31.4276C176.079 31.7476 175.679 32.2276 175.391 32.8676C175.103 33.5076 174.959 34.2996 174.959 35.2436C174.959 36.6516 175.271 37.7316 175.895 38.4836C176.535 39.2196 177.375 39.5876 178.415 39.5876ZM191.341 41.3156C190.317 41.3156 189.413 41.0756 188.629 40.5956C187.861 40.0996 187.261 39.3956 186.829 38.4836C186.397 37.5556 186.181 36.4756 186.181 35.2436C186.181 33.9956 186.389 32.9236 186.805 32.0276C187.237 31.1156 187.837 30.4196 188.605 29.9396C189.389 29.4436 190.301 29.1956 191.341 29.1956C192.381 29.1956 193.277 29.4596 194.029 29.9876C194.781 30.4996 195.285 31.1876 195.541 32.0516H195.277V25.1156C195.277 24.7476 195.365 24.4756 195.541 24.2996C195.733 24.1076 196.005 24.0116 196.357 24.0116C196.709 24.0116 196.981 24.1076 197.173 24.2996C197.365 24.4756 197.461 24.7476 197.461 25.1156V40.1396C197.461 40.5076 197.365 40.7876 197.173 40.9796C196.981 41.1716 196.709 41.2676 196.357 41.2676C196.021 41.2676 195.757 41.1716 195.565 40.9796C195.373 40.7876 195.277 40.5076 195.277 40.1396V37.9556L195.541 38.3876C195.301 39.2836 194.797 39.9956 194.029 40.5236C193.277 41.0516 192.381 41.3156 191.341 41.3156ZM191.845 39.5876C192.549 39.5876 193.157 39.4196 193.669 39.0836C194.197 38.7476 194.597 38.2596 194.869 37.6196C195.157 36.9796 195.301 36.1876 195.301 35.2436C195.301 33.8356 194.989 32.7636 194.365 32.0276C193.741 31.2916 192.901 30.9236 191.845 30.9236C191.157 30.9236 190.549 31.0916 190.021 31.4276C189.509 31.7476 189.109 32.2276 188.821 32.8676C188.533 33.5076 188.389 34.2996 188.389 35.2436C188.389 36.6516 188.701 37.7316 189.325 38.4836C189.965 39.2196 190.805 39.5876 191.845 39.5876ZM206.362 41.3156C205.098 41.3156 204.01 41.0756 203.098 40.5956C202.202 40.0996 201.506 39.4036 201.01 38.5076C200.514 37.5956 200.266 36.5236 200.266 35.2916C200.266 34.0756 200.506 33.0116 200.986 32.0996C201.482 31.1876 202.154 30.4756 203.002 29.9636C203.866 29.4516 204.85 29.1956 205.954 29.1956C206.738 29.1956 207.442 29.3316 208.066 29.6036C208.706 29.8596 209.25 30.2356 209.698 30.7316C210.146 31.2276 210.482 31.8356 210.706 32.5556C210.946 33.2596 211.066 34.0596 211.066 34.9556C211.066 35.2116 210.986 35.4116 210.826 35.5556C210.682 35.6836 210.466 35.7476 210.178 35.7476H201.97V34.3556H209.626L209.218 34.6916C209.218 33.8596 209.09 33.1556 208.834 32.5796C208.594 31.9876 208.234 31.5396 207.754 31.2356C207.29 30.9316 206.706 30.7796 206.002 30.7796C205.234 30.7796 204.578 30.9636 204.034 31.3316C203.49 31.6836 203.074 32.1876 202.786 32.8436C202.498 33.4836 202.354 34.2276 202.354 35.0756V35.2196C202.354 36.6596 202.698 37.7476 203.386 38.4836C204.074 39.2196 205.066 39.5876 206.362 39.5876C206.874 39.5876 207.394 39.5236 207.922 39.3956C208.466 39.2676 208.986 39.0356 209.482 38.6996C209.722 38.5556 209.938 38.4916 210.13 38.5076C210.338 38.5076 210.506 38.5716 210.634 38.6996C210.762 38.8116 210.842 38.9556 210.874 39.1316C210.906 39.2916 210.882 39.4676 210.802 39.6596C210.722 39.8516 210.57 40.0196 210.346 40.1636C209.818 40.5316 209.186 40.8196 208.45 41.0276C207.73 41.2196 207.034 41.3156 206.362 41.3156Z" fill="black"/>
</svg>
